<mxfile host="app.diagrams.net" modified="2022-12-26T10:03:33.261Z" agent="5.0 (Macintosh; Intel Mac OS X 10_15_7) AppleWebKit/537.36 (KHTML, like Gecko) Chrome/108.0.0.0 Safari/537.36" version="20.7.4" etag="yQBgKuv9gs9pbOXZcfYb" type="github" pages="2">
  <diagram id="e-NTrJDsKSgD0PQDO6hl" name="Page-1">
    <mxGraphModel dx="954" dy="591" grid="0" gridSize="10" guides="1" tooltips="1" connect="1" arrows="1" fold="1" page="1" pageScale="1" pageWidth="850" pageHeight="1100" math="0" shadow="0">
      <root>
        <mxCell id="0" />
        <mxCell id="1" parent="0" />
        <mxCell id="TO2rfZ25YX1bt6g4n42r-2" value="Json-server" style="labelPosition=center;verticalLabelPosition=middle;align=center;html=1;shape=mxgraph.basic.button;dx=10;whiteSpace=wrap;fillColor=#dae8fc;strokeColor=#6c8ebf;" vertex="1" parent="1">
          <mxGeometry x="97" y="53" width="100" height="116" as="geometry" />
        </mxCell>
        <mxCell id="TO2rfZ25YX1bt6g4n42r-3" value="product.json" style="shape=note;whiteSpace=wrap;html=1;backgroundOutline=1;darkOpacity=0.05;" vertex="1" parent="1">
          <mxGeometry x="180" y="131" width="80" height="38" as="geometry" />
        </mxCell>
        <mxCell id="TO2rfZ25YX1bt6g4n42r-4" value="&lt;font style=&quot;font-size: 10px;&quot;&gt;&lt;span style=&quot;caret-color: rgb(0, 0, 0); font-family: Lora, serif; text-align: start; text-size-adjust: auto; background-color: rgb(211, 211, 211);&quot;&gt;&lt;font style=&quot;&quot;&gt;&amp;gt;&lt;/font&gt;&lt;/span&gt;&lt;span style=&quot;caret-color: rgb(0, 0, 0); font-family: Lora, serif; text-align: start; text-size-adjust: auto; background-color: rgb(211, 211, 211);&quot;&gt;npm install -g json-server&lt;/span&gt;&lt;/font&gt;" style="text;html=1;strokeColor=none;fillColor=none;align=center;verticalAlign=middle;whiteSpace=wrap;rounded=0;" vertex="1" parent="1">
          <mxGeometry x="42" y="191" width="116" height="30" as="geometry" />
        </mxCell>
        <mxCell id="TO2rfZ25YX1bt6g4n42r-5" value="&lt;font style=&quot;font-size: 10px;&quot;&gt;&amp;gt;&amp;nbsp;&lt;span style=&quot;caret-color: rgb(0, 0, 0); font-family: Lora, serif; text-align: start; text-size-adjust: auto; background-color: rgb(211, 211, 211);&quot;&gt;json-server --watch productjson&lt;/span&gt;&lt;/font&gt;" style="text;html=1;align=center;verticalAlign=middle;resizable=0;points=[];autosize=1;strokeColor=none;fillColor=none;fontSize=10;" vertex="1" parent="1">
          <mxGeometry x="35" y="216" width="154" height="24" as="geometry" />
        </mxCell>
        <mxCell id="TO2rfZ25YX1bt6g4n42r-6" value="Add the json objects to product.json" style="text;html=1;align=center;verticalAlign=middle;resizable=0;points=[];autosize=1;strokeColor=none;fillColor=none;fontSize=10;" vertex="1" parent="1">
          <mxGeometry x="37" y="237" width="176" height="24" as="geometry" />
        </mxCell>
        <mxCell id="TO2rfZ25YX1bt6g4n42r-10" value="&lt;span style=&quot;background-color: rgb(204, 255, 255);&quot;&gt;{&quot;products&quot;: [&lt;br&gt;&amp;nbsp; &amp;nbsp; {&lt;br&gt;&amp;nbsp; &amp;nbsp; &amp;nbsp; &quot;id&quot;: 1,&lt;br&gt;&amp;nbsp; &amp;nbsp; &amp;nbsp; &quot;pname&quot;: &quot;Laptop&quot;,&lt;br&gt;&amp;nbsp; &amp;nbsp; &amp;nbsp; &quot;price&quot;: &quot;5000&quot;&lt;br&gt;&amp;nbsp; &amp;nbsp; },&lt;br&gt;&amp;nbsp; &amp;nbsp; {&lt;br&gt;&amp;nbsp; &amp;nbsp; &amp;nbsp; &quot;id&quot;: 2,&lt;br&gt;&amp;nbsp; &amp;nbsp; &amp;nbsp; &quot;pname&quot;: &quot;Mobile&quot;,&lt;br&gt;&amp;nbsp; &amp;nbsp; &amp;nbsp; &quot;price&quot;: &quot;600&quot;&lt;br&gt;&amp;nbsp; &amp;nbsp; }]}&lt;/span&gt;" style="text;html=1;align=left;verticalAlign=middle;resizable=0;points=[];autosize=1;strokeColor=#6c8ebf;fillColor=#dae8fc;fontSize=8;labelBackgroundColor=#3333FF;" vertex="1" parent="1">
          <mxGeometry x="229" y="162" width="98" height="118" as="geometry" />
        </mxCell>
        <mxCell id="TO2rfZ25YX1bt6g4n42r-11" value="" style="endArrow=classic;html=1;rounded=0;fontSize=8;fontColor=none;exitX=0.92;exitY=0.979;exitDx=0;exitDy=0;exitPerimeter=0;entryX=0.061;entryY=0.996;entryDx=0;entryDy=0;entryPerimeter=0;" edge="1" parent="1" source="TO2rfZ25YX1bt6g4n42r-6" target="TO2rfZ25YX1bt6g4n42r-10">
          <mxGeometry width="50" height="50" relative="1" as="geometry">
            <mxPoint x="399" y="192" as="sourcePoint" />
            <mxPoint x="449" y="142" as="targetPoint" />
          </mxGeometry>
        </mxCell>
        <mxCell id="TO2rfZ25YX1bt6g4n42r-12" value="Install Bootstrap" style="text;html=1;align=center;verticalAlign=middle;resizable=0;points=[];autosize=1;strokeColor=#d79b00;fillColor=#ffe6cc;fontSize=8;" vertex="1" parent="1">
          <mxGeometry x="498" y="54" width="75" height="22" as="geometry" />
        </mxCell>
        <mxCell id="TO2rfZ25YX1bt6g4n42r-13" value="Add CDN path for boostrap from getBootstrap.com" style="text;html=1;align=center;verticalAlign=middle;resizable=0;points=[];autosize=1;strokeColor=none;fillColor=none;fontSize=8;fontColor=none;" vertex="1" parent="1">
          <mxGeometry x="525" y="74" width="198" height="22" as="geometry" />
        </mxCell>
        <mxCell id="TO2rfZ25YX1bt6g4n42r-14" value="&lt;div style=&quot;font-size: 10px;&quot;&gt;&lt;font style=&quot;font-size: 10px;&quot;&gt;&amp;lt;nav class= &quot;navbar navbar-expand-lg navbar-dark bg-warning&quot;&amp;gt;&lt;/font&gt;&lt;/div&gt;&lt;div style=&quot;font-size: 10px;&quot;&gt;&lt;font style=&quot;font-size: 10px;&quot;&gt;&amp;nbsp; &amp;nbsp; &amp;lt;div class=&quot;container-fluid&quot;&amp;gt;&lt;/font&gt;&lt;/div&gt;&lt;div style=&quot;font-size: 10px;&quot;&gt;&lt;font style=&quot;font-size: 10px;&quot;&gt;&amp;nbsp; &amp;nbsp; &amp;nbsp; &amp;lt;a class=&quot;navbar-brand&quot; href =&quot;#&quot;&amp;gt;Shopping Point&amp;lt;/a&amp;gt;&lt;/font&gt;&lt;/div&gt;&lt;div style=&quot;font-size: 10px;&quot;&gt;&lt;font style=&quot;font-size: 10px;&quot;&gt;&amp;nbsp; &amp;nbsp; &amp;lt;/div&amp;gt;&lt;/font&gt;&lt;/div&gt;&lt;div style=&quot;font-size: 10px;&quot;&gt;&lt;font style=&quot;font-size: 10px;&quot;&gt;&amp;lt;/nav&amp;gt;&lt;/font&gt;&lt;/div&gt;&lt;div style=&quot;font-size: 10px;&quot;&gt;&lt;font style=&quot;font-size: 10px;&quot;&gt;&amp;lt;router-outlet&amp;gt;&amp;lt;/router-outlet &amp;gt;&lt;/font&gt;&lt;/div&gt;" style="text;html=1;align=left;verticalAlign=middle;resizable=0;points=[];autosize=1;strokeColor=#0e8088;fillColor=#b0e3e6;fontSize=8;strokeWidth=4;" vertex="1" parent="1">
          <mxGeometry x="42" y="386" width="307" height="84" as="geometry" />
        </mxCell>
        <mxCell id="TO2rfZ25YX1bt6g4n42r-15" value="" style="shape=image;verticalLabelPosition=bottom;labelBackgroundColor=default;verticalAlign=top;aspect=fixed;imageAspect=0;image=data:image/png,iVBORw0KGgoAAAANSUhEUgAAAl4AAABiCAYAAACBBt15AAAMbWlDQ1BJQ0MgUHJvZmlsZQAASImVVwdYU8kWnluSkJDQAghICb0JIjWAlBBaAOlFsBGSQEKJMSGo2JFFBdcuoljRVRHFtgJix64sir0vFlSUdVEXGyBvQgK67ivfO9839/45c+Y/5c7k3gOA5ieuRJKLagGQJ86XxocFMcampjFIzwEF0AAZkIA6lyeTsGJjowCUwfvf5cMtgCju150UXP+c/6+iwxfIeAAg4yHO4Mt4eRCfBABfz5NI8wEgKvSWU/MlCjwXYl0pDBDiVQqcpcQ7FThDiY8O2CTGsyG+CoAalcuVZgGg8QDqGQW8LMij0Quxi5gvEgOgOQJif56Qy4dYEfuIvLzJClwBsR20l0AM4wHMjO84s/7GnzHEz+VmDWFlXgOiFiySSXK50//P0vxvycuVD/qwgYMqlIbHK/KHNbyTMzlSgakQd4ozomMUtYb4k4ivrDsAKEUoD09S2qPGPBkb1g/oQ+zC5wZHQmwMcag4NzpKpc/IFIVyIIa7BZ0myuckQmwA8UKBLCRBZbNZOjle5Quty5SyWSr9Ba50wK/C1yN5ThJLxf9OKOCo+DGNQmFiCsQUiK0KRMnREGtA7CzLSYhU2YwuFLKjB22k8nhF/FYQxwvEYUFKfqwgUxoar7IvzZMN5ottFoo40Sp8IF+YGK6sD3aGxx2IH+aCXRWIWUmDPALZ2KjBXPiC4BBl7thLgTgpQcXzSZIfFK9ci1MkubEqe9xCkBum0FtA7C4rSFCtxZPz4eZU8uOZkvzYRGWceGE2NyJWGQ++DEQBNggGDCCHIwNMBtlA1NJZ3wl/KWdCARdIQRYQACeVZnBFysCMGF4TQCH4AyIBkA2tCxqYFYACqO8b0iqvTiBzYLZgYEUOeA5xHogEufC3fGCVeMhbMngGNaJ/eOfCwYPx5sKhmP/3+kHtNw0LaqJUGvmgR4bmoCUxhBhMDCeGEu1xI9wf98Wj4DUQDleciXsP5vHNnvCc0Ep4QrhJaCPcnSQqkv4Q5RjQBvlDVbXI+L4WuA3k9MCDcD/IDplxfdwIOOHu0A8LD4CePaCWrYpbURXGD9x/y+C7p6GyI7uQUfIwciDZ7seVGg4aHkMsilp/Xx9lrBlD9WYPzfzon/1d9fnwHvmjJbYQO4idx05hF7GjWD1gYCewBqwZO6bAQ7vr2cDuGvQWPxBPDuQR/cMfV+VTUUmZS41Lh0uvci5fMC1fcfDYkyXTpaIsYT6DBd8OAgZHzHMewXB1cXUFQPGuUf59vY8beIcg+s3fdPN/B8DvRH9//5FvuogTAOz3gsf/8DedHRMAbXUALhzmyaUFSh2uuBDgv4QmPGmGwBRYAjuYjyvwBL4gEISACBADEkEqmAirLIT7XAqmgplgHigBZWAZWA3WgU1gK9gJ9oADoB4cBafAOXAZXAU3wX24e9rBa9AFPoAeBEFICA2hI4aIGWKNOCKuCBPxR0KQKCQeSUXSkSxEjMiRmch8pAxZgaxDtiDVyH7kMHIKuYi0IneRx0gH8g75gmIoFdVFTVAbdCTKRFloJJqITkCz0CloIVqMLkEr0Cp0N1qHnkIvozfRNvQ12o0BTB3Tx8wxJ4yJsbEYLA3LxKTYbKwUK8eqsFqsET7n61gb1ol9xok4HWfgTnAHh+NJOA+fgs/GF+Pr8J14HX4Gv44/xrvwrwQawZjgSPAhcAhjCVmEqYQSQjlhO+EQ4Sw8S+2ED0QiUZ9oS/SCZzGVmE2cQVxM3EDcSzxJbCU+JXaTSCRDkiPJjxRD4pLySSWktaTdpBOka6R20ic1dTUzNVe1ULU0NbFakVq52i6142rX1F6o9ZC1yNZkH3IMmU+eTl5K3kZuJF8ht5N7KNoUW4ofJZGSTZlHqaDUUs5SHlDeq6urW6h7q8epi9Tnqleo71O/oP5Y/TNVh+pAZVPHU+XUJdQd1JPUu9T3NBrNhhZIS6Pl05bQqmmnaY9onzToGs4aHA2+xhyNSo06jWsabzTJmtaaLM2JmoWa5ZoHNa9odmqRtWy02FpcrdlalVqHtW5rdWvTtUdpx2jnaS/W3qV9UfulDknHRidEh69TrLNV57TOUzpGt6Sz6Tz6fPo2+ll6uy5R11aXo5utW6a7R7dFt0tPR89dL1lvml6l3jG9Nn1M30afo5+rv1T/gP4t/S/DTIaxhgmGLRpWO+zasI8Gww0CDQQGpQZ7DW4afDFkGIYY5hguN6w3fGiEGzkYxRlNNdpodNaoc7jucN/hvOGlww8Mv2eMGjsYxxvPMN5q3GzcbWJqEmYiMVlrctqk01TfNNA023SV6XHTDjO6mb+ZyGyV2QmzVww9BouRy6hgnGF0mRubh5vLzbeYt5j3WNhaJFkUWey1eGhJsWRaZlqusmyy7LIysxpjNdOqxuqeNdmaaS20XmN93vqjja1Nis0Cm3qbl7YGthzbQtsa2wd2NLsAuyl2VXY37In2TPsc+w32Vx1QBw8HoUOlwxVH1NHTUeS4wbF1BGGE9wjxiKoRt52oTiynAqcap8fO+s5RzkXO9c5vRlqNTBu5fOT5kV9dPFxyXba53B+lMypiVNGoxlHvXB1cea6VrjfcaG6hbnPcGtzeuju6C9w3ut/xoHuM8Vjg0eTR5+nlKfWs9ezwsvJK91rvdZupy4xlLmZe8CZ4B3nP8T7q/dnH0yff54DPn75Ovjm+u3xfjrYdLRi9bfRTPws/rt8WvzZ/hn+6/2b/tgDzAG5AVcCTQMtAfuD2wBcse1Y2azfrTZBLkDToUNBHtg97FvtkMBYcFlwa3BKiE5IUsi7kUahFaFZoTWhXmEfYjLCT4YTwyPDl4bc5Jhwep5rTFeEVMSviTCQ1MiFyXeSTKIcoaVTjGHRMxJiVYx5EW0eLo+tjQAwnZmXMw1jb2CmxR+KIcbFxlXHP40fFz4w/n0BPmJSwK+FDYlDi0sT7SXZJ8qSmZM3k8cnVyR9TglNWpLSNHTl21tjLqUapotSGNFJactr2tO5xIeNWj2sf7zG+ZPytCbYTpk24ONFoYu7EY5M0J3EnHUwnpKek70rv5cZwq7jdGZyM9RldPDZvDe81P5C/it8h8BOsELzI9Mtckfkyyy9rZVaHMEBYLuwUsUXrRG+zw7M3ZX/MicnZkdOfm5K7N08tLz3vsFhHnCM+M9l08rTJrRJHSYmkbYrPlNVTuqSR0u0yRDZB1pCvCz/qm+V28p/kjwv8CyoLPk1NnnpwmvY08bTm6Q7TF01/URha+MsMfAZvRtNM85nzZj6exZq1ZTYyO2N20xzLOcVz2ueGzd05jzIvZ95vRS5FK4r+mp8yv7HYpHhu8dOfwn6qKdEokZbcXuC7YNNCfKFoYcsit0VrF30t5ZdeKnMpKy/rXcxbfOnnUT9X/Ny/JHNJy1LPpRuXEZeJl91aHrB85wrtFYUrnq4cs7JuFWNV6aq/Vk9afbHcvXzTGsoa+Zq2iqiKhrVWa5et7V0nXHezMqhy73rj9YvWf9zA33BtY+DG2k0mm8o2fdks2nxnS9iWuiqbqvKtxK0FW59vS952/hfmL9XbjbaXbe/bId7RtjN+55lqr+rqXca7ltagNfKajt3jd1/dE7ynodapdste/b1l+8A++b5X+9P33zoQeaDpIPNg7a/Wv64/RD9UWofUTa/rqhfWtzWkNrQejjjc1OjbeOiI85EdR82PVh7TO7b0OOV48fH+E4Unuk9KTnaeyjr1tGlS0/3TY0/fOBN3puVs5NkL50LPnT7POn/igt+Foxd9Lh6+xLxUf9nzcl2zR/Oh3zx+O9Ti2VJ3xetKw1Xvq42to1uPXwu4dup68PVzNzg3Lt+Mvtl6K+nWndvjb7fd4d95eTf37tt7Bfd67s99QHhQ+lDrYfkj40dVv9v/vrfNs+3Y4+DHzU8Sntx/ynv6+pnsWW978XPa8/IXZi+qX7q+PNoR2nH11bhX7a8lr3s6S/7Q/mP9G7s3v/4Z+Gdz19iu9rfSt/3vFr83fL/jL/e/mrpjux99yPvQ87H0k+GnnZ+Zn89/SfnyomdqL6m3os++r/Fr5NcH/Xn9/RKulDvwKYDBgWZmAvBuBwC0VADosG+jjFP2ggOCKPvXAQT+E1b2iwPiCUAt/H6P64RfN7cB2LcNtl+QXxP2qrE0ABK9AermNjRUIst0c1VyUWGfQnjU3/8e9myklQD0Levv76nq7+/bCoOFveNJsbIHVQgR9gybQ/oy8jLAvxFlf/pdjj/egSICd/Dj/V/tMpCXb2FVJwAAAIplWElmTU0AKgAAAAgABAEaAAUAAAABAAAAPgEbAAUAAAABAAAARgEoAAMAAAABAAIAAIdpAAQAAAABAAAATgAAAAAAAACQAAAAAQAAAJAAAAABAAOShgAHAAAAEgAAAHigAgAEAAAAAQAAAl6gAwAEAAAAAQAAAGIAAAAAQVNDSUkAAABTY3JlZW5zaG90a7c5yAAAAAlwSFlzAAAWJQAAFiUBSVIk8AAAAdVpVFh0WE1MOmNvbS5hZG9iZS54bXAAAAAAADx4OnhtcG1ldGEgeG1sbnM6eD0iYWRvYmU6bnM6bWV0YS8iIHg6eG1wdGs9IlhNUCBDb3JlIDYuMC4wIj4KICAgPHJkZjpSREYgeG1sbnM6cmRmPSJodHRwOi8vd3d3LnczLm9yZy8xOTk5LzAyLzIyLXJkZi1zeW50YXgtbnMjIj4KICAgICAgPHJkZjpEZXNjcmlwdGlvbiByZGY6YWJvdXQ9IiIKICAgICAgICAgICAgeG1sbnM6ZXhpZj0iaHR0cDovL25zLmFkb2JlLmNvbS9leGlmLzEuMC8iPgogICAgICAgICA8ZXhpZjpQaXhlbFlEaW1lbnNpb24+OTg8L2V4aWY6UGl4ZWxZRGltZW5zaW9uPgogICAgICAgICA8ZXhpZjpQaXhlbFhEaW1lbnNpb24+NjA2PC9leGlmOlBpeGVsWERpbWVuc2lvbj4KICAgICAgICAgPGV4aWY6VXNlckNvbW1lbnQ+U2NyZWVuc2hvdDwvZXhpZjpVc2VyQ29tbWVudD4KICAgICAgPC9yZGY6RGVzY3JpcHRpb24+CiAgIDwvcmRmOlJERj4KPC94OnhtcG1ldGE+Cv+qKDsAAAAcaURPVAAAAAIAAAAAAAAAMQAAACgAAAAxAAAAMQAADPw47GNNAAAMyElEQVR4Aeyde6xcRR3Hf2cfd2+h8ugDqKUtUF5CeFYxGCRoJMaomPh+QEA0gCiBSOAPAUlU9A8MqBgBQRElMRg1QY1GDQmKorwKtFKRR0sLpQ8o0NL23n37+83tnj1n9uzdy+3ObimfSdudmTPnd+Z85vTO9/7md2ajZfcubYqmQ+Vy+yBBAAIQgAAEIAABCAQiECG8ApHFLAQgAAEIQAACEPAIILw8IBQhAAEIQAACEIBAKAIIr1BksQsBCEAAAhCAAAQ8AggvDwhFCEAAAhCAAAQgEIoAwisUWexCAAIQgAAEIAABjwDCywNCEQIQgAAEIAABCIQigPAKRRa7EIAABCAAAQhAwCOA8PKAUIQABCAAAQhAAAKhCCC8QpHFLgQgAAEIQAACEPAIILw8IBQhAAEIQAACEIBAKAIIr1BksQsBCEAAAhCAAAQ8AggvDwhFCEAAAhCAAAQgEIoAwisUWexCAAIQgAAEIAABjwDCywNCEQIQgAAEIAABCIQigPAKRRa7EIAABCAAAQhAwCOA8PKAUIQABCAAAQhAAAKhCCC8QpHFLgQgAAEIQAACEPAIILw8IBQhAAEIQAACEIBAKAIIr1BksQsBCEAAAhCAAAQ8AggvDwhFCEAAAhCAAAQgEIoAwisUWexCAAIQgAAEIAABjwDCywNCEQIQgAAEIAABCIQigPAKRRa7EIAABCAAAQhAwCOA8PKAUIQABCAAAQhAAAKhCCC8QpHFLgQgAAEIQAACEPAIILw8IBQhAAEIQAACEIBAKAIIr1BksQsBCEAAAhCAAAQ8AggvDwhFCEAAAhCAAAQgEIoAwisUWexCAAIQgAAEIAABjwDCywNCEQIQgAAEIAABCIQigPAKRRa7EIAABCAAAQhAwCOA8PKAUIQABCAAAQhAAAKhCCC8QpHFLgQgAAEIQAACEPAI7FLCKxqZLdHoPIlGZklU2Eua9TFpVl+WZvlFaY4973U9uxgV95Hi4ZdJJDnXoLH9Wamuujm7MbXTJmDjU1h0tuTnvlea4y9I7fk7pf7S36dtjxPDEmC8wvLFOgQgAIGpEhi68Irye0h+3hmSn/Nuyc08vGu/m+PrpL7pH1Jb+1tpVl7q2i63x0FSOvGW+Hhj2yopP3JeXCbTHwJFFV2FBWe2jTXKMv7Ap6RZ29au241zI0de6Z5X+0XBUrP6qgrQ9dl3rGzcLw/l9SpO75XGtpXZ7QLWvtnHKyBaTEMAAhB4XQSGKrzyc06V4iEXqodr9tQ7rV6w6pqfqwD7jZ7T7DgP4dWBJEhF6YQfS27Pg1O2K098803j9Ro96U7nmU0BmGKhsfVJqT79fbHPQaU3+3gNijPXgQAEINCLwNCEV0G9XMXFF/XqX9fjtXW/l+ozP+g4jvDqQBKkorj4YinM+1DCdlPGHzxTPTsbE3W7b3ZnhJej0qxJdeWPxJ7jQaRhj1dUmCmlJT8VjSGYuN36uD4vn9N85y9Pg+DBNSAAAQgMi8BQhFd+35Nk5Ohv6T1H6ftuNnS5Zq0uxazSCXyDehTmSKRLh7k9FrR/YCfOqD57q4stSlRpW5YakzxC5aMZ82XkCFtuWyzSqDgPZHX1baEut8vZzRRedX+ZVeMM8zMm6XtTKiu+LvWX/z1Jm/4cGvZ4WdymMUumsX++X3VXI1lFHgIQgMBuT2AIwiuS0gk36TLVISm4ja1PSeV/39Eg+udS9VawH9rFwy4VE2yppMuO4w+dpfE1m+NqhFeMYiAZe5lBA7v0z9aBXG9XuYgvvMqPXSSN157o6F5U2FNfGJkvub2OlsLCM91LI8lGxq388DmpZzh5vN/5YY0XwqvfI4k9CEDgjUpg4MIrt9cxUjr2uhSv+vo/ScWWDXUCnywVdeIqLDw71cTeWKyt/XVch/CKUZAJSGCqwivZBVtuKx52meRnvytZLdVnb1HP7a9SdbtbAeG1u40o9wMBCEyXwMCFl8UFWbxJK5m3ysV66JtfPZPGh4y+445UMH79xXvUU3ZNfCrCK0ZBJiCB6Qgv646LdTrx1tQzbF7e8YfPDdjb4ZtGeA1/DOgBBCCwaxAYuPAqHnyeFOZ/Ir77xuZlUl5+aVzulSks+KwUF30+btZ49REp/+fyuDyZ8MrNPEzy+52ucWAL3cTXbGpgr25N0di+Ruob/6qxZc/EdqaSiUr7S2H/0yWasUCi0n4SFffWJaMtLsDc7W218e7MpdOk7Wj0ALcXVquusWWFNDY/6oo2WU30d5HGuunf3Ig0xje4fbPctgRblrdOy/wMalv38conguubul9afdN9cT+6XzvSJeMlun3IaboEt78ym6X7tW2T5vbVOg6rnQ1jN/Wk9uacIrl9TpSc2wNurtrbOhEnqNs22LjafnCW8nPf4/aJcwWNLaqvuys+5upexz/TFV52icIBH5DioV9NXW3svg+6WLlU5Y5CX56zHuNll+r3mNn/ifx+73N34fYRm/+xHXc08VFdfbtm2jFeDX1+bN89EgQgAIHdmcDghdeic3X/p8/ETG3/o/H7P6nlKb7dFOUlyo+2z29UUxNWN+FVPPh8FXwfj8/Lytg+YdUnr9XJeHvW4bjOJsLi4q9IftY7tc57QSBuNZExYVh95gZpZMSuWQsTViOHt4VjfeNfpPLUdVJ460fFllZF9znrlhpbHtdtCb7XdbIKaTu393FSOua7cddMLJaXXxaXM6+tfS0ddY2KpBPidh0Z9XzahFx7QbcL6RF4nZ91sm5H8qW2mOowpiZUWFdX3qTbXPxNYwtvTsUW2v5u9iLHdNLOCK/cnotdnGPyuuMW5zW2NlmlYr5/z1mv8bIL93vM8nNP0xcwrkjd02QFP2xgsrYcgwAEIPBGJTBw4ZW1jUTlv1envCU7AzNLeJmYMeE1ldTY+rRYoHS3eDOLURt529XOuzUVe66NenQqT1wj9Vce7Dgla7IzD01h3kc62mZVWHB25fErNLB7RcfhkLZ7TeSd175bJFdU79SpHf3MqqhvMAF6bdYhV2d8iou/rPnJhW/LgO2blZ/34V1CeNmmwaMn39XqmvssP3Zxagz7/Zz1Gi/rRL/HDOGVGmIKEIAABByBgQsve5vRPA+ppEH1laevF5tsdzb5wmvCnnnTEhO0ChsTN7aUl5Vqz/1SvS6655CX7JX8Uet7ruQdMZ32mi5bviKiy4225NiRmnUn6OztzWTyJzu1pIcTfdWSe2uztkX7O0dnx4ztCdRDZzFCzcqmpOmOibSftntN5J33leqaKzT1nkSXezN5KYfyY5ekxEjLgnm6Ro76RquY+myxkuK+Lp4qPmieURV+yTQ0j5cuG5c0ziuZ3Pjt8IqGeM56jZf1pd9jlt9niRR1h39Ltkwu9jeZbInZlvt3pOrKG3VpeOd/BrTs8QkBCEBgVyQwcOFlEErH3SC5txzZwcO8TfWX7hELmLd9vKaTsoWXWWqKCSpbTrTrWNkCnQuLzlHv0hlaTogdFTJj9+uypE3WcdJtMI693m0LEFdppvHqUreTvi37tZLFkhUWnqVLkSe3qtyn+/qiRy/US9fi+skmu/orD0ht9c+0vy2xpvFMurxZ0OVaf9d4/yUDu0BI270m8q7X1o0z7S2+ui7BtrYOiUpz3TcY5GefEnOxjDEtL7skVWfeotKSn0yI0MSR+sv3K6vbUnF6FvdVPEhZzTwi0bKdHZbwslizkSO+1u6I5sbu081o3QsmYZ6zXuNlnQk1Zmab4HqjQIIABCCgPw+X3bvU/cp5qLTjjEKDceLo+B9meo5a13bB1rp8ZsHmdZ2AW5N063i3z27Ca7L4kcKBn9YJ+gspk5UVV6U2trQlspEjr0q1qW/4s3rqdGuMzFikSMXEBS5WK3lSVT17tfV/jKu6TXa1db/T2DBl5DxgcXOXMfExcvS3O0Rg+ZHzVXisjBuHtN1rIs+8tnk2H79SRdfDcR+TGRMjJkripO2dIFFvYStZnJ6/bNzYvHziBYuEoG21d28RqtCPZhzYqoo/hyK81Os2evyN7mWJVkfslwzb9d9SqOes13i5a3vxhq5DfRgzs4PwcjT5BwIQgMBwhJdxN2+ETbTZy0ydI2OTU33Tv9xSRNsD1NkuS3iZ0DHB0zXp0uHo22/XyWF23MTfFd9EVzI+yd68G1/6RfVSJL1i8ek7MrZZ7I3qndLd3Xck/y3MLIEy4Rm7oIugmzBkb4yN2lewJJY9a2vuUO/b7a1LZXow+mW710SedV8WZ1Vb/4e4f37GLbEtuU2r297H8YfOdm9xttr63lL7iqKyehGTm+i22rY+TXTZeSbCkmngwktfDLHvJp3wsLZ7UtPvHq2u+YWrCPWc9Rovu3ioMTPbCC+jQIIABCAg8n8AAAD//4xSLCYAAA/dSURBVO2dB7QdRRnHv739BUIoabQkSAoEQygJ1Y4iqIgeiYLSBTwWLBGkSlEUJIKIHhAFRI9gQVFBRTl2pARCCIEESEIIJxASAunk3X79vrns3N29e9/cR2ZubvL+c87LTtuZ3d/sy/zflG+8uffPrhG7sfQ1uXTUedlhlB59OiWHvZvIS7Zdd3XNbCo+dz3Vel9quicxaAxlD/hJKL447yKqrH4kFBcNZMafS8nhR+ro8rK7qLT4xno4kaWeQ35HxFfflRZ9j8rL/+IHW16TQ99Bmb2+3kivVSn/yMepVlqr4pLD30eZ8WH2xWe+QZVX72/c08KX3vNLlNr5Qzq1+vpiKjz+GR12WXZiyGTKTvqurqu6dg4VnjxXh+Pqzs+U916t88R5clN/QV52hE4qzruQ2+5RFfYyO1LuoF/rNPEUn/02VVb+KxQXF0jtehyl92iwkTyFx8+i6uvPx2U3xslzyPP4rvDE2VRd/4wfDF295CBKbLcP138Wefx9hly1QPnHTqNaYaX6vlx9Z6b2kmdy0Wb+u8a1Xe8D7yfi3wc4EAABEBhIBLzNKbx80NLRJoe/l5I7HkSJwXtztOcntb5WernTvZIqqx4K5YkTXvmHP0a18rpQvmggPepkSo06SUdXVtxLxYXXqnBcmYU5n6PqhoU6fyuPl9uZclN+HkouzJ1O1XVPqrjYzu7RT9Y74tBdzYHUiKMpPW56I4E7sd4HjuKw0tLxHamlsk0defS9aoUVlH/0xMaztvBlJ11DiSH76tTiM1ewCP2PCicGT6Ts5O/rNPHkZ51CtfyyUFxcQIRPdt/rQkk2hZcU3CS8PI/F2bCQQAs9AAeKC2dQZcV9Ktrld2ZqL3kAF22mXoz/gfDySeAKAiAw0Al0hfAKNoKX2laJLxFgie0m8g93wol0MEvDz6MFhTlfoOrGJTou2nm12+GnRn6A0mO/ossJCa/tD6TsW6/SaSJseh88hnvaQiCuldejnkP/yL1aj84QFBNNnV15A+Uf/qjO25cnMXgvFiI/CGXJzzyu5WhazWLZpo48+l4ygicjeSaX2etiSg59p84WYrXT2yiz96U6jVh89z50LIfrQrOREONL5rgd7uaEhqi3Lbxiau0zqvzir6i05BadJ+HwOzO1lzyEizbzXw7CyyeBKwiAwEAn0HXCK9ogHguWxA5TeUrt2NBIiJ+vsuphKs5vTOVFhZdMJUkHa3KpEUfx6NFXdbag8JLRuMz483SaTHHmHztVh00eEUciknxXWnwDlZf9XgWjnV117ZM8ZRcYxfJvirkKm5yIuqCYmH2mFqIuyzZ15NG6K6/cR8UFM2LeIhyVmXARTz2/S0cGhVdq5AdZHH9Zp8mIo4w8tuui05ibS3jVSmuotOg6qrz2QOjRXX5npvaSB3HRZv4LQnj5JHAFARAY6AS6XngFGyg54kjKjGVx5CUa0bUK5WdO46nE9SrOhfCKjobJlJKs6WnXZfe5ksXjFJ29tORmKr9YX6vU1Nnx1Glx/iU6b98eHk07nNeZeSmdrTDn8zwFukCFXZZt6sib6rYgvJLDjqDMhPP1u7Y7mlm/oXnk0brwqryuny3oqVUKVCuu5CnR5Txt+l8WXA/yIF05mEX5XX5npvaSB3DRZv5LQnj5JHAFARAY6AS2KOEljZXa/URekH9KqN2CC5tdCK/kTofzFNdlus7+TNnJTdGRltLCa6i84q+qvGhnV+tdyqNpp+u6+vLI2jgpO+jys05SHbzEuSzb1JFH67Yx4pXYfn+e8r06+LpqWlbaw+QSPbtT9sBbQ9lsCq/gNxiqpB8Bl9+Zqb3kMV20mf/6EF4+CVxBAAQGOoHOC6/AzkAFv611Uo1m8lLbUU52GAZc8enL9LSNC+El682yk68P1MiLuttcpC472nKH/oHvbawtCu6yjHZ2/Vk/ltzxEMpM/GbouXof5F2ObzB1WbapI4/WbUV4DRrNO1ZvDr2v7KSUHZUmlxz2Hh4tuyCUrduEl8vvzNReAsZFm/nAIbx8EriCAAgMdAIdFV6Jbd5C2f1vajBngZB/5HiedTGPWDRuIp5euzc0vVacdwGbHJilsrgQXmL2Ijf1juAjUFA8hRIigbjOVEw+iOkHcdHOTuLUhoENz4q3T5fa7QRKjwmMjvFUV+9DH9H3uCzb1JFH67YhvES85g7+DXnp7fU7Vlb+m3e3fkuHYz08FZuddDVv1JgUSu424eXyOzO1l4Bx02Z15BBeoU8PARAAgQFMoKPCSzrM3MF3hnCXltzK651+GYrrK5DYdhxl97shlEXZQep9UcW5EF5ScO6AW9gG0yhdr9jwElteJpcecwaldvuEzlYrvsZi8wQO13fiRTs7yVh+6U4qPf9jfU+8x2MOvGh/2wk6Obpz0GXZpo48Wrcd4UW8uJ5tl41s2C6Tlw+umdMwAp7M2OmUHHl0IKbu7TbhJU/l6jsztZfU7arNpOxY4RUYnZU8cCAAAiAwEAh0VHgJ0NyUn5GX20WzrRVXqZ1pIkhMTkxNZCZeoYxR6rw8aqZGed5YrOxKeEXtfIlwKsxho5l9jEwlWKhl9/tRyByG7GaUXY2+i3Z2Kp7fRdkJ68O4Z3QXptxXXHAVVV75h190U0dqs2xTRx59L1vCS4SmCM7g1K20hbLpFjWkykZ51ahgZE2gD6gbhZer78zUXsLEVZtJ2V56BzVaKX7fBf9g8uNwBQEQAIGtnUDHhVdq12nKgncIbGWjsmdUfvkejo63ySQGMDMTLmSr5sNDt5ZfvptKz0lHXHeuhJeXG8mjEby+KLBGTaZIxZRFdd1TfvX6KiNzIhLlL33teAdmYc5nQ9bSo52dn1cs28t0ZpywU7v7xp/DvVljN6PkL8w6mWrM0ncuyzZ15NG6bQkvebf0nmezeZEP+6+przJ9W13zmOYii9Wj34vOzJ5uFF6uvjNTewkXl20mQrnnsD/x709GN0F56R1UeuGnOgwPCIAACAwEAh0XXmIMNXfArTzqNbKJb23jC0poVDcuJZKt+SxU5IiVxDZ71A2pBs1IyN3VIuVnn8G7+F7WZbkSXlJB3LEzEi/HEVXFgr7SjDVldyy502Gc0lhQL/nKS2/njuY28WoX7ex0gvLUlOmBqhx3JEcq8Y8sEpd1Y1EnNrJE3ASdy7JNHXm0bpvCSzYsZCbN4GnW8cHX7dNfXTuXG3Cw+pb8jN0ovOTZXHxnpvaSel22mZQvf7h4vEEi6GSNXnX9PPW7LEdDqaOTghngBwEQAIGtjEDnhRcDlK39GT7nLzQa1F+wLMrUbkY2oBp0LoWXCKnMxMv5aKNDg1W25a+ufYIKT7ENqoj9pmhnJzv0vEF78NTMkLbKlUyV1/7HLC5vyu+ybFNHHq3bpvBSL8qW6OUMzOQOBzW9dzSium4e87mUMmJPjUcifdetwsvFd2ZqL2Hius3SYz7NU7/H+/ibrqXnb+L1jb9tikcECIAACGxNBDaL8BKAnoivCeeFFoe3C1bWgynL3xHRJfe7FV5Sg8dTpWfyqMQ0CbTlKsv53Ec+1DsquuTmuM5ObHyJ3TAxnWFylRV/o+Kia7nsalNWl2WbOvK4ujfVcn3TC3JEko/ZSe02LXC0lAw78kgjj4ZWeQRVjuURo6XiZFPGliG85Gntfmem9pIanbcZT9Pn+AB7Ob80zkF4xVFBHAiAwNZGYLMJrzpIT/1nn9qFjwNSIxHhqbkobGX5e+U/ldX34FqmYD5ZuJ+bchtH1cuqrn+arcx/MZgl1i/H1MhxNb6LLoL34/2rHAEkxxipcwXjzpLkETk5EkbWoMloVyvXqrOTjQRiLDa1M+/gC6wr88uRdWVKVKya6Uc1XV2WXV/k/kNdZ/TopuTQt/OI1CU6PboWTydEPBk+tinJxzf5rjj/Yj4IvfU7+vmkvdUIqqx74ynZ+vSzmvvVWcT+W1DMFmY3jlfSmdr0RDeJbEpZfVVp6zsztZc8QyfazOPp3tToUynJ5242RrzrYhnCq68vAWkgAAJbC4HNLLwaGOU/YbFM7mWG1u00yZRcIscHPq9hewGreR3I06FF6Y07N7OPRVEiN4IXcY+ojzolUtzpr+C1KvzDhzibXCtx1LiPBQWPECS2GaMEWK3wCtV6lzGX1Y0sLXwuy25RZddGyyL73NTbQ88nh5H314ZcqIBOBjbxO+vko7Zbl9gtEyGs2oD/eJHfGaqW2r0d+UAABEBgiyTQNcJri6Rn4aHN4ujNV+Ky7Df/VJt2Z3r0aSQjpL5Th6DPnc7B8OiWn+5fM+PP59HVI/yg6uxFeMGBAAiAAAiAQCcJQHh1knZMXS7FkcuyY16lI1HR8wylUjWNufjG2DV0Mk2b3v0Enrb9VOj5ysv/rNYJhiIRAAEQAAEQAAHHBCC8HAM2Fe9SHLks2/ReztJZSOUO5FMEZGo34MQMQeVVNk2wYZEyRSIGO72eXXmU68jAWqI3buBp7Pzss3jKls2WwIEACIAACIBABwlAeHUQdlxVLsWRy7Lj3qVTcYkh+1F2nytiNx208wzFBd9hm2d/bycr8oAACIAACICAVQIQXlZx9r8wl+LIZdn9f1O7d8ju1cy4cygxZFLbBdfK6/iUgxuosrJxrFLbNyMjCIAACIAACFggAOFlAeKmFCHb6jN7B80u3BM6Aqlby96U57J3r8fmNo5R1vzFIrqY4IhzMqUoB4iXl93Fu0HXxmVBHAiAAAiAAAh0hACEV0cwo5JOEBCTJF7PKPLkPMBklmrF1eoIGmWmoBMPgDpAAARAAARAwEAAwssACMkgAAIgAAIgAAIgYIsAhJctkigHBEAABEAABEAABAwEILwMgJAMAiAAAiAAAiAAArYIQHjZIolyQAAEQAAEQAAEQMBAAMLLAAjJIAACIAACIAACIGCLAISXLZIoBwRAAARAAARAAAQMBCC8DICQDAIgAAIgAAIgAAK2CEB42SKJckAABEAABEAABEDAQADCywAIySAAAiAAAiAAAiBgiwCEly2SKAcEQAAEQAAEQAAEDAQgvAyAkAwCIAACIAACIAACtghAeNkiiXJAAARAAARAAARAwEAAwssACMkgAAIgAAIgAAIgYIsAhJctkigHBEAABEAABEAABAwEILwMgJAMAiAAAiAAAiAAArYIQHjZIolyQAAEQAAEQAAEQMBAAMLLAAjJIAACIAACIAACIGCLAISXLZIoBwRAAARAAARAAAQMBCC8DICQDAIgAAIgAAIgAAK2CEB42SKJckAABEAABEAABEDAQADCywAIySAAAiAAAiAAAiBgiwCEly2SKAcEQAAEQAAEQAAEDAQgvAyAkAwCIAACIAACIAACtghAeNkiiXJAAARAAARAAARAwEAAwssACMkgAAIgAAIgAAIgYIsAhJctkigHBEAABEAABEAABAwE/g+lMee8sHGbFwAAAABJRU5ErkJggg==;" vertex="1" parent="1">
          <mxGeometry x="24" y="340.09" width="253" height="40.91" as="geometry" />
        </mxCell>
        <mxCell id="TO2rfZ25YX1bt6g4n42r-16" value="" style="shape=image;html=1;verticalLabelPosition=bottom;verticalAlign=top;imageAspect=0;image=img/clipart/Gear_128x128.png;labelBackgroundColor=#CCFFFF;fontSize=8;fontColor=none;" vertex="1" parent="1">
          <mxGeometry x="552.5" y="472" width="46" height="41" as="geometry" />
        </mxCell>
        <mxCell id="TO2rfZ25YX1bt6g4n42r-17" value="&lt;font style=&quot;font-size: 13px;&quot;&gt;ProductService .ts&lt;/font&gt;" style="text;html=1;align=center;verticalAlign=middle;resizable=0;points=[];autosize=1;strokeColor=none;fillColor=none;fontSize=8;fontColor=none;" vertex="1" parent="1">
          <mxGeometry x="660" y="555" width="123" height="28" as="geometry" />
        </mxCell>
        <mxCell id="TO2rfZ25YX1bt6g4n42r-19" value="&lt;div style=&quot;font-size: 10px;&quot;&gt;&lt;font style=&quot;font-size: 10px;&quot;&gt;import { HttpClient } from &#39;@angular/common/http&#39;;&lt;/font&gt;&lt;/div&gt;&lt;div style=&quot;font-size: 10px;&quot;&gt;&lt;font style=&quot;font-size: 10px;&quot;&gt;&amp;nbsp;constructor(private http: HttpClient) {}&lt;/font&gt;&lt;/div&gt;" style="text;html=1;align=left;verticalAlign=middle;resizable=0;points=[];autosize=1;strokeColor=#0e8088;fillColor=#b0e3e6;fontSize=8;strokeWidth=4;" vertex="1" parent="1">
          <mxGeometry x="647" y="594" width="241" height="36" as="geometry" />
        </mxCell>
        <mxCell id="TO2rfZ25YX1bt6g4n42r-20" value="ng g s Products/Product" style="text;html=1;align=center;verticalAlign=middle;resizable=0;points=[];autosize=1;strokeColor=#82b366;fillColor=#d5e8d4;fontSize=13;" vertex="1" parent="1">
          <mxGeometry x="600.5" y="478" width="157" height="28" as="geometry" />
        </mxCell>
        <mxCell id="TO2rfZ25YX1bt6g4n42r-21" value="&lt;font color=&quot;#d20f0f&quot;&gt;&lt;b&gt;Add HttpClientModule&amp;nbsp;&lt;/b&gt;&lt;/font&gt;" style="text;html=1;align=center;verticalAlign=middle;resizable=0;points=[];autosize=1;strokeColor=none;fillColor=none;fontSize=13;fontColor=none;" vertex="1" parent="1">
          <mxGeometry x="544" y="534" width="158" height="28" as="geometry" />
        </mxCell>
        <mxCell id="TO2rfZ25YX1bt6g4n42r-23" value="&lt;font style=&quot;font-size: 13px;&quot;&gt;App.Module.ts&lt;/font&gt;" style="text;html=1;align=center;verticalAlign=middle;resizable=0;points=[];autosize=1;strokeColor=none;fillColor=none;fontSize=8;fontColor=none;" vertex="1" parent="1">
          <mxGeometry x="465" y="555" width="101" height="28" as="geometry" />
        </mxCell>
        <mxCell id="TO2rfZ25YX1bt6g4n42r-26" value="&lt;div style=&quot;font-size: 10px;&quot;&gt;&lt;b style=&quot;&quot;&gt;&lt;font style=&quot;font-size: 10px;&quot;&gt;import { HttpClientModule } from &#39;@angular/common/http&#39;;&lt;/font&gt;&lt;/b&gt;&lt;/div&gt;&lt;div style=&quot;font-size: 10px;&quot;&gt;&lt;font style=&quot;font-size: 10px;&quot;&gt;imports: [&lt;/font&gt;&lt;/div&gt;&lt;div style=&quot;font-size: 10px;&quot;&gt;&lt;font style=&quot;font-size: 10px;&quot;&gt;&amp;nbsp; &amp;nbsp; BrowserModule,&lt;span style=&quot;background-color: initial;&quot;&gt;&lt;b style=&quot;&quot;&gt;&amp;nbsp; HttpClientModule ,&lt;/b&gt;&lt;/span&gt;&lt;/font&gt;&lt;/div&gt;" style="text;html=1;align=left;verticalAlign=middle;resizable=0;points=[];autosize=1;strokeColor=#0e8088;fillColor=#b0e3e6;fontSize=8;strokeWidth=4;" vertex="1" parent="1">
          <mxGeometry x="342" y="590" width="296" height="48" as="geometry" />
        </mxCell>
        <mxCell id="TO2rfZ25YX1bt6g4n42r-27" value="&lt;font style=&quot;font-size: 13px;&quot;&gt;&lt;b&gt;Add NavBar&lt;/b&gt;&lt;/font&gt;" style="text;html=1;align=center;verticalAlign=middle;resizable=0;points=[];autosize=1;strokeColor=none;fillColor=none;fontSize=9;fontColor=#d20f0f;" vertex="1" parent="1">
          <mxGeometry x="2" y="311" width="92" height="28" as="geometry" />
        </mxCell>
        <mxCell id="TO2rfZ25YX1bt6g4n42r-28" value="&lt;font color=&quot;#d20f0f&quot;&gt;&lt;b&gt;Add Bootstrap&lt;/b&gt;&lt;/font&gt;" style="text;html=1;align=center;verticalAlign=middle;resizable=0;points=[];autosize=1;strokeColor=none;fillColor=none;fontSize=13;fontColor=none;" vertex="1" parent="1">
          <mxGeometry x="508" y="21" width="108" height="28" as="geometry" />
        </mxCell>
        <mxCell id="TO2rfZ25YX1bt6g4n42r-29" value="&lt;font color=&quot;#d20f0f&quot;&gt;&lt;b&gt;Setup Json-Server&lt;/b&gt;&lt;/font&gt;" style="text;html=1;align=center;verticalAlign=middle;resizable=0;points=[];autosize=1;strokeColor=none;fillColor=none;fontSize=13;fontColor=none;" vertex="1" parent="1">
          <mxGeometry x="18" y="17" width="133" height="28" as="geometry" />
        </mxCell>
        <mxCell id="TO2rfZ25YX1bt6g4n42r-30" value="&lt;font color=&quot;#d20f0f&quot;&gt;&lt;b&gt;Create Product Service&lt;/b&gt;&lt;/font&gt;" style="text;html=1;align=center;verticalAlign=middle;resizable=0;points=[];autosize=1;strokeColor=none;fillColor=none;fontSize=13;fontColor=none;" vertex="1" parent="1">
          <mxGeometry x="523" y="436" width="161" height="28" as="geometry" />
        </mxCell>
        <mxCell id="TO2rfZ25YX1bt6g4n42r-31" value="&lt;b&gt;Add an Interface for Product Data&lt;/b&gt;" style="text;html=1;align=center;verticalAlign=middle;resizable=0;points=[];autosize=1;strokeColor=none;fillColor=none;fontSize=13;fontColor=#d20f0f;" vertex="1" parent="1">
          <mxGeometry x="18" y="550" width="225" height="28" as="geometry" />
        </mxCell>
        <mxCell id="TO2rfZ25YX1bt6g4n42r-32" value="&lt;div&gt;&lt;b&gt;export interface Product {&lt;/b&gt;&lt;/div&gt;&lt;div&gt;&lt;b&gt;&amp;nbsp; &amp;nbsp; id: number,&lt;/b&gt;&lt;/div&gt;&lt;div&gt;&lt;b&gt;&amp;nbsp; &amp;nbsp; pname: string,&amp;nbsp;&lt;/b&gt;&lt;/div&gt;&lt;div&gt;&lt;b&gt;&amp;nbsp; &amp;nbsp; price: number&lt;/b&gt;&lt;/div&gt;&lt;div&gt;&lt;b&gt;}&lt;/b&gt;&lt;/div&gt;" style="text;html=1;align=left;verticalAlign=middle;resizable=0;points=[];autosize=1;strokeColor=#0e8088;fillColor=#b0e3e6;fontSize=8;" vertex="1" parent="1">
          <mxGeometry x="33" y="602" width="116" height="60" as="geometry" />
        </mxCell>
        <mxCell id="TO2rfZ25YX1bt6g4n42r-34" value="ng generate interface products/product" style="text;html=1;align=center;verticalAlign=middle;resizable=0;points=[];autosize=1;strokeColor=#82b366;fillColor=#d5e8d4;fontSize=13;" vertex="1" parent="1">
          <mxGeometry x="30" y="571" width="241" height="28" as="geometry" />
        </mxCell>
        <mxCell id="TO2rfZ25YX1bt6g4n42r-36" value="&lt;b&gt;Get the All Products from Products.json&lt;/b&gt;" style="text;html=1;align=center;verticalAlign=middle;resizable=0;points=[];autosize=1;strokeColor=none;fillColor=none;fontSize=13;fontColor=#d20f0f;" vertex="1" parent="1">
          <mxGeometry x="35" y="709" width="265" height="28" as="geometry" />
        </mxCell>
        <mxCell id="TO2rfZ25YX1bt6g4n42r-38" value="&lt;div style=&quot;font-size: 10px;&quot;&gt;&lt;div&gt;import { Product } from &#39;./product&#39;;&amp;nbsp;&lt;/div&gt;&lt;div&gt;get() {&lt;/div&gt;&lt;div&gt;&amp;nbsp; &amp;nbsp; return this.http.get&amp;lt;Product[]&amp;gt;(&#39;http://localhost:3000/products&#39;);&lt;/div&gt;&lt;div&gt;&amp;nbsp; }&lt;/div&gt;&lt;/div&gt;" style="text;html=1;align=left;verticalAlign=middle;resizable=0;points=[];autosize=1;strokeColor=#0e8088;fillColor=#b0e3e6;fontSize=8;strokeWidth=4;" vertex="1" parent="1">
          <mxGeometry x="51" y="768" width="305" height="60" as="geometry" />
        </mxCell>
        <mxCell id="TO2rfZ25YX1bt6g4n42r-39" value="&lt;font style=&quot;font-size: 13px;&quot;&gt;ProductService .ts&lt;/font&gt;" style="text;html=1;align=center;verticalAlign=middle;resizable=0;points=[];autosize=1;strokeColor=none;fillColor=none;fontSize=8;fontColor=none;" vertex="1" parent="1">
          <mxGeometry x="123" y="743" width="123" height="28" as="geometry" />
        </mxCell>
        <mxCell id="TO2rfZ25YX1bt6g4n42r-40" value="" style="shape=image;html=1;verticalLabelPosition=bottom;verticalAlign=top;imageAspect=0;image=img/clipart/Gear_128x128.png;labelBackgroundColor=#CCFFFF;fontSize=8;fontColor=none;" vertex="1" parent="1">
          <mxGeometry x="16" y="737" width="46" height="41" as="geometry" />
        </mxCell>
        <mxCell id="TO2rfZ25YX1bt6g4n42r-42" value="&lt;div style=&quot;font-size: 10px;&quot;&gt;&lt;div style=&quot;border-color: var(--border-color);&quot;&gt;export class ProductListComponent {&lt;/div&gt;&lt;div style=&quot;border-color: var(--border-color);&quot;&gt;&amp;nbsp;&lt;b&gt; &amp;nbsp; allProducts : Product[] =[];&lt;/b&gt;&lt;/div&gt;&lt;div style=&quot;border-color: var(--border-color);&quot;&gt;&amp;nbsp; &amp;nbsp; constructor(private productService: ProductsService) {}&lt;/div&gt;&lt;div style=&quot;border-color: var(--border-color);&quot;&gt;&amp;nbsp; &amp;nbsp;this.get();&lt;/div&gt;&lt;div style=&quot;border-color: var(--border-color);&quot;&gt;&amp;nbsp; &amp;nbsp; }&lt;/div&gt;&lt;div style=&quot;border-color: var(--border-color);&quot;&gt;&amp;nbsp; &amp;nbsp; get() {&lt;/div&gt;&lt;div style=&quot;border-color: var(--border-color);&quot;&gt;&amp;nbsp; &amp;nbsp; &amp;nbsp; this.productService.get().subscribe((data) =&amp;gt; {&lt;/div&gt;&lt;div style=&quot;border-color: var(--border-color);&quot;&gt;&amp;nbsp; &amp;nbsp; &amp;nbsp; &amp;nbsp; this.allProducts = data;&lt;/div&gt;&lt;div style=&quot;border-color: var(--border-color);&quot;&gt;&amp;nbsp; &amp;nbsp; &amp;nbsp; });&lt;/div&gt;&lt;div style=&quot;border-color: var(--border-color);&quot;&gt;&amp;nbsp; &amp;nbsp; }&lt;/div&gt;&lt;/div&gt;" style="text;html=1;align=left;verticalAlign=middle;resizable=0;points=[];autosize=1;strokeColor=#0e8088;fillColor=#b0e3e6;fontSize=8;strokeWidth=4;" vertex="1" parent="1">
          <mxGeometry x="404" y="774" width="273" height="132" as="geometry" />
        </mxCell>
        <mxCell id="TO2rfZ25YX1bt6g4n42r-43" value="product.json" style="shape=note;whiteSpace=wrap;html=1;backgroundOutline=1;darkOpacity=0.05;" vertex="1" parent="1">
          <mxGeometry x="37" y="834" width="80" height="38" as="geometry" />
        </mxCell>
        <mxCell id="TO2rfZ25YX1bt6g4n42r-44" value="&lt;span style=&quot;background-color: rgb(204, 255, 255);&quot;&gt;{&quot;products&quot;: [&lt;br&gt;&amp;nbsp; &amp;nbsp; {&lt;br&gt;&amp;nbsp; &amp;nbsp; &amp;nbsp; &quot;id&quot;: 1,&lt;br&gt;&amp;nbsp; &amp;nbsp; &amp;nbsp; &quot;pname&quot;: &quot;Laptop&quot;,&lt;br&gt;&amp;nbsp; &amp;nbsp; &amp;nbsp; &quot;price&quot;: &quot;5000&quot;&lt;br&gt;&amp;nbsp; &amp;nbsp; },&lt;br&gt;&amp;nbsp; &amp;nbsp; {&lt;br&gt;&amp;nbsp; &amp;nbsp; &amp;nbsp; &quot;id&quot;: 2,&lt;br&gt;&amp;nbsp; &amp;nbsp; &amp;nbsp; &quot;pname&quot;: &quot;Mobile&quot;,&lt;br&gt;&amp;nbsp; &amp;nbsp; &amp;nbsp; &quot;price&quot;: &quot;600&quot;&lt;br&gt;&amp;nbsp; &amp;nbsp; }]}&lt;/span&gt;" style="text;html=1;align=left;verticalAlign=middle;resizable=0;points=[];autosize=1;strokeColor=#6c8ebf;fillColor=#dae8fc;fontSize=8;labelBackgroundColor=#3333FF;" vertex="1" parent="1">
          <mxGeometry x="86" y="865" width="98" height="118" as="geometry" />
        </mxCell>
        <mxCell id="TO2rfZ25YX1bt6g4n42r-47" value="" style="edgeStyle=elbowEdgeStyle;elbow=vertical;endArrow=classic;html=1;curved=0;rounded=0;endSize=14;startSize=8;fontSize=10;fontColor=#000000;" edge="1" parent="1" target="TO2rfZ25YX1bt6g4n42r-38">
          <mxGeometry width="50" height="50" relative="1" as="geometry">
            <mxPoint x="171" y="863" as="sourcePoint" />
            <mxPoint x="204" y="826" as="targetPoint" />
          </mxGeometry>
        </mxCell>
        <mxCell id="TO2rfZ25YX1bt6g4n42r-49" value="" style="edgeStyle=elbowEdgeStyle;elbow=vertical;endArrow=classic;html=1;curved=0;rounded=0;endSize=8;startSize=8;fontSize=10;fontColor=#000000;entryX=0.07;entryY=0.75;entryDx=0;entryDy=0;entryPerimeter=0;exitX=0.584;exitY=1.017;exitDx=0;exitDy=0;exitPerimeter=0;" edge="1" parent="1" source="TO2rfZ25YX1bt6g4n42r-38" target="TO2rfZ25YX1bt6g4n42r-42">
          <mxGeometry width="50" height="50" relative="1" as="geometry">
            <mxPoint x="310" y="818" as="sourcePoint" />
            <mxPoint x="360" y="768" as="targetPoint" />
            <Array as="points">
              <mxPoint x="365" y="873" />
            </Array>
          </mxGeometry>
        </mxCell>
        <mxCell id="TO2rfZ25YX1bt6g4n42r-52" value="&lt;font style=&quot;font-size: 13px;&quot;&gt;Product-list.component .ts&lt;/font&gt;" style="text;html=1;align=center;verticalAlign=middle;resizable=0;points=[];autosize=1;strokeColor=none;fillColor=none;fontSize=8;fontColor=none;" vertex="1" parent="1">
          <mxGeometry x="398" y="743" width="168" height="28" as="geometry" />
        </mxCell>
        <mxCell id="TO2rfZ25YX1bt6g4n42r-54" value="" style="shape=image;verticalLabelPosition=bottom;labelBackgroundColor=default;verticalAlign=middle;aspect=fixed;imageAspect=0;image=data:image/png,iVBORw0KGgoAAAANSUhEUgAAA0AAAAFKCAYAAAA0Zz8NAAAMbWlDQ1BJQ0MgUHJvZmlsZQAASImVVwdYU8kWnluSkJDQAghICb0JIjWAlBBaAOlFsBGSQEKJMSGo2JFFBdcuoljRVRHFtgJix64sir0vFlSUdVEXGyBvQgK67ivfO9839/45c+Y/5c7k3gOA5ieuRJKLagGQJ86XxocFMcampjFIzwEF0AAZkIA6lyeTsGJjowCUwfvf5cMtgCju150UXP+c/6+iwxfIeAAg4yHO4Mt4eRCfBABfz5NI8wEgKvSWU/MlCjwXYl0pDBDiVQqcpcQ7FThDiY8O2CTGsyG+CoAalcuVZgGg8QDqGQW8LMij0Quxi5gvEgOgOQJif56Qy4dYEfuIvLzJClwBsR20l0AM4wHMjO84s/7GnzHEz+VmDWFlXgOiFiySSXK50//P0vxvycuVD/qwgYMqlIbHK/KHNbyTMzlSgakQd4ozomMUtYb4k4ivrDsAKEUoD09S2qPGPBkb1g/oQ+zC5wZHQmwMcag4NzpKpc/IFIVyIIa7BZ0myuckQmwA8UKBLCRBZbNZOjle5Quty5SyWSr9Ba50wK/C1yN5ThJLxf9OKOCo+DGNQmFiCsQUiK0KRMnREGtA7CzLSYhU2YwuFLKjB22k8nhF/FYQxwvEYUFKfqwgUxoar7IvzZMN5ottFoo40Sp8IF+YGK6sD3aGxx2IH+aCXRWIWUmDPALZ2KjBXPiC4BBl7thLgTgpQcXzSZIfFK9ci1MkubEqe9xCkBum0FtA7C4rSFCtxZPz4eZU8uOZkvzYRGWceGE2NyJWGQ++DEQBNggGDCCHIwNMBtlA1NJZ3wl/KWdCARdIQRYQACeVZnBFysCMGF4TQCH4AyIBkA2tCxqYFYACqO8b0iqvTiBzYLZgYEUOeA5xHogEufC3fGCVeMhbMngGNaJ/eOfCwYPx5sKhmP/3+kHtNw0LaqJUGvmgR4bmoCUxhBhMDCeGEu1xI9wf98Wj4DUQDleciXsP5vHNnvCc0Ep4QrhJaCPcnSQqkv4Q5RjQBvlDVbXI+L4WuA3k9MCDcD/IDplxfdwIOOHu0A8LD4CePaCWrYpbURXGD9x/y+C7p6GyI7uQUfIwciDZ7seVGg4aHkMsilp/Xx9lrBlD9WYPzfzon/1d9fnwHvmjJbYQO4idx05hF7GjWD1gYCewBqwZO6bAQ7vr2cDuGvQWPxBPDuQR/cMfV+VTUUmZS41Lh0uvci5fMC1fcfDYkyXTpaIsYT6DBd8OAgZHzHMewXB1cXUFQPGuUf59vY8beIcg+s3fdPN/B8DvRH9//5FvuogTAOz3gsf/8DedHRMAbXUALhzmyaUFSh2uuBDgv4QmPGmGwBRYAjuYjyvwBL4gEISACBADEkEqmAirLIT7XAqmgplgHigBZWAZWA3WgU1gK9gJ9oADoB4cBafAOXAZXAU3wX24e9rBa9AFPoAeBEFICA2hI4aIGWKNOCKuCBPxR0KQKCQeSUXSkSxEjMiRmch8pAxZgaxDtiDVyH7kMHIKuYi0IneRx0gH8g75gmIoFdVFTVAbdCTKRFloJJqITkCz0CloIVqMLkEr0Cp0N1qHnkIvozfRNvQ12o0BTB3Tx8wxJ4yJsbEYLA3LxKTYbKwUK8eqsFqsET7n61gb1ol9xok4HWfgTnAHh+NJOA+fgs/GF+Pr8J14HX4Gv44/xrvwrwQawZjgSPAhcAhjCVmEqYQSQjlhO+EQ4Sw8S+2ED0QiUZ9oS/SCZzGVmE2cQVxM3EDcSzxJbCU+JXaTSCRDkiPJjxRD4pLySSWktaTdpBOka6R20ic1dTUzNVe1ULU0NbFakVq52i6142rX1F6o9ZC1yNZkH3IMmU+eTl5K3kZuJF8ht5N7KNoUW4ofJZGSTZlHqaDUUs5SHlDeq6urW6h7q8epi9Tnqleo71O/oP5Y/TNVh+pAZVPHU+XUJdQd1JPUu9T3NBrNhhZIS6Pl05bQqmmnaY9onzToGs4aHA2+xhyNSo06jWsabzTJmtaaLM2JmoWa5ZoHNa9odmqRtWy02FpcrdlalVqHtW5rdWvTtUdpx2jnaS/W3qV9UfulDknHRidEh69TrLNV57TOUzpGt6Sz6Tz6fPo2+ll6uy5R11aXo5utW6a7R7dFt0tPR89dL1lvml6l3jG9Nn1M30afo5+rv1T/gP4t/S/DTIaxhgmGLRpWO+zasI8Gww0CDQQGpQZ7DW4afDFkGIYY5hguN6w3fGiEGzkYxRlNNdpodNaoc7jucN/hvOGlww8Mv2eMGjsYxxvPMN5q3GzcbWJqEmYiMVlrctqk01TfNNA023SV6XHTDjO6mb+ZyGyV2QmzVww9BouRy6hgnGF0mRubh5vLzbeYt5j3WNhaJFkUWey1eGhJsWRaZlqusmyy7LIysxpjNdOqxuqeNdmaaS20XmN93vqjja1Nis0Cm3qbl7YGthzbQtsa2wd2NLsAuyl2VXY37In2TPsc+w32Vx1QBw8HoUOlwxVH1NHTUeS4wbF1BGGE9wjxiKoRt52oTiynAqcap8fO+s5RzkXO9c5vRlqNTBu5fOT5kV9dPFxyXba53B+lMypiVNGoxlHvXB1cea6VrjfcaG6hbnPcGtzeuju6C9w3ut/xoHuM8Vjg0eTR5+nlKfWs9ezwsvJK91rvdZupy4xlLmZe8CZ4B3nP8T7q/dnH0yff54DPn75Ovjm+u3xfjrYdLRi9bfRTPws/rt8WvzZ/hn+6/2b/tgDzAG5AVcCTQMtAfuD2wBcse1Y2azfrTZBLkDToUNBHtg97FvtkMBYcFlwa3BKiE5IUsi7kUahFaFZoTWhXmEfYjLCT4YTwyPDl4bc5Jhwep5rTFeEVMSviTCQ1MiFyXeSTKIcoaVTjGHRMxJiVYx5EW0eLo+tjQAwnZmXMw1jb2CmxR+KIcbFxlXHP40fFz4w/n0BPmJSwK+FDYlDi0sT7SXZJ8qSmZM3k8cnVyR9TglNWpLSNHTl21tjLqUapotSGNFJactr2tO5xIeNWj2sf7zG+ZPytCbYTpk24ONFoYu7EY5M0J3EnHUwnpKek70rv5cZwq7jdGZyM9RldPDZvDe81P5C/it8h8BOsELzI9Mtckfkyyy9rZVaHMEBYLuwUsUXrRG+zw7M3ZX/MicnZkdOfm5K7N08tLz3vsFhHnCM+M9l08rTJrRJHSYmkbYrPlNVTuqSR0u0yRDZB1pCvCz/qm+V28p/kjwv8CyoLPk1NnnpwmvY08bTm6Q7TF01/URha+MsMfAZvRtNM85nzZj6exZq1ZTYyO2N20xzLOcVz2ueGzd05jzIvZ95vRS5FK4r+mp8yv7HYpHhu8dOfwn6qKdEokZbcXuC7YNNCfKFoYcsit0VrF30t5ZdeKnMpKy/rXcxbfOnnUT9X/Ny/JHNJy1LPpRuXEZeJl91aHrB85wrtFYUrnq4cs7JuFWNV6aq/Vk9afbHcvXzTGsoa+Zq2iqiKhrVWa5et7V0nXHezMqhy73rj9YvWf9zA33BtY+DG2k0mm8o2fdks2nxnS9iWuiqbqvKtxK0FW59vS952/hfmL9XbjbaXbe/bId7RtjN+55lqr+rqXca7ltagNfKajt3jd1/dE7ynodapdste/b1l+8A++b5X+9P33zoQeaDpIPNg7a/Wv64/RD9UWofUTa/rqhfWtzWkNrQejjjc1OjbeOiI85EdR82PVh7TO7b0OOV48fH+E4Unuk9KTnaeyjr1tGlS0/3TY0/fOBN3puVs5NkL50LPnT7POn/igt+Foxd9Lh6+xLxUf9nzcl2zR/Oh3zx+O9Ti2VJ3xetKw1Xvq42to1uPXwu4dup68PVzNzg3Lt+Mvtl6K+nWndvjb7fd4d95eTf37tt7Bfd67s99QHhQ+lDrYfkj40dVv9v/vrfNs+3Y4+DHzU8Sntx/ynv6+pnsWW978XPa8/IXZi+qX7q+PNoR2nH11bhX7a8lr3s6S/7Q/mP9G7s3v/4Z+Gdz19iu9rfSt/3vFr83fL/jL/e/mrpjux99yPvQ87H0k+GnnZ+Zn89/SfnyomdqL6m3os++r/Fr5NcH/Xn9/RKulDvwKYDBgWZmAvBuBwC0VADosG+jjFP2ggOCKPvXAQT+E1b2iwPiCUAt/H6P64RfN7cB2LcNtl+QXxP2qrE0ABK9AermNjRUIst0c1VyUWGfQnjU3/8e9myklQD0Levv76nq7+/bCoOFveNJsbIHVQgR9gybQ/oy8jLAvxFlf/pdjj/egSICd/Dj/V/tMpCXb2FVJwAAAIplWElmTU0AKgAAAAgABAEaAAUAAAABAAAAPgEbAAUAAAABAAAARgEoAAMAAAABAAIAAIdpAAQAAAABAAAATgAAAAAAAACQAAAAAQAAAJAAAAABAAOShgAHAAAAEgAAAHigAgAEAAAAAQAAA0CgAwAEAAAAAQAAAUoAAAAAQVNDSUkAAABTY3JlZW5zaG90NNZY+QAAAAlwSFlzAAAWJQAAFiUBSVIk8AAAAdZpVFh0WE1MOmNvbS5hZG9iZS54bXAAAAAAADx4OnhtcG1ldGEgeG1sbnM6eD0iYWRvYmU6bnM6bWV0YS8iIHg6eG1wdGs9IlhNUCBDb3JlIDYuMC4wIj4KICAgPHJkZjpSREYgeG1sbnM6cmRmPSJodHRwOi8vd3d3LnczLm9yZy8xOTk5LzAyLzIyLXJkZi1zeW50YXgtbnMjIj4KICAgICAgPHJkZjpEZXNjcmlwdGlvbiByZGY6YWJvdXQ9IiIKICAgICAgICAgICAgeG1sbnM6ZXhpZj0iaHR0cDovL25zLmFkb2JlLmNvbS9leGlmLzEuMC8iPgogICAgICAgICA8ZXhpZjpQaXhlbFlEaW1lbnNpb24+MzMwPC9leGlmOlBpeGVsWURpbWVuc2lvbj4KICAgICAgICAgPGV4aWY6UGl4ZWxYRGltZW5zaW9uPjgzMjwvZXhpZjpQaXhlbFhEaW1lbnNpb24+CiAgICAgICAgIDxleGlmOlVzZXJDb21tZW50PlNjcmVlbnNob3Q8L2V4aWY6VXNlckNvbW1lbnQ+CiAgICAgIDwvcmRmOkRlc2NyaXB0aW9uPgogICA8L3JkZjpSREY+CjwveDp4bXBtZXRhPgoKAaGjAAAAHGlET1QAAAACAAAAAAAAAKUAAAAoAAAApQAAAKUAADZubm6o5AAANjpJREFUeAHs3Qm8DeUbwPEHof6JQkkhSrayS0LZS6TsS0SpSJF931rsuyjJmmSnaNFizRayk1IUoSjZshb+84zOmJkzZ7nXPTnn+r2fD2fmnXdm3vnOuXfuM/PO+ya5YCQhIYAAAggggAACCCBwBQQKtThxBfbKLhOrwPoR14c8tCQEQCGNKIAAAggggAACCCAQIQECoAjBXqWbJQC6Sk88h40AAggggAACCMSKwH0tT8i587FSW+oZzQLJkoqsHc4ToGg+R9QNAQQQQAABBBC46gUq9zwlv/5JBHTVfxESACBj2qTyyavXhdwSTeBCElEAAQQQQAABBBBAIFICvaadlTkr/pYU1ySRs//wanqknBPzdn3fneolkku3uilCHioBUEgiCiCAAAIIIIAAAghESmDnr+elTr9T5ubP8yAoUsyJertJjaZvmqZ3uk7uyvjvzMUsz/8JgDxZyEQAAQQQQAABBBD4rwSGfHBWJi/6W65NkUROn+Up0H/lnhj24/vONCibXNpUC/30R4+ZACgxnHmOAQEEEEAAAQQQiGGBv/8RafbmaVn/4znRF9nPGzEQA7XE8An9D6qeJIlIUuOfdqBRKHsyGfXStZL8mvB2TAAUnhOlEEAAAQQQQAABBCIocPpvkZHzzsq0pX+bAVAEd8WmE4mABkB1SyWXFo+nkJTJwz8oAqDwrSiJAAIIIIAAAgggEGGBHfvOy+LN52T7nnPy7Z7z8scxmsRFmDymNp8+dRLJkyWp5M6STMrkSyY5bg/9zo/7AAmA3CLMI4AAAggggAACCCCAQKIVIABKtKeWA0MAAQQQQAABBBBAAAG3AAGQW4R5BBBAAAEEEEAAAQQQSLQCBECJ9tRyYAgggAACCCCAAAIIIOAWIAByizCPAAIIIIAAAggggAACiVaAACjRnloODAEEEEAAAQQQQAABBNwCBEBuEeYRQAABBBBAAAEEEEAg0QoQACXaU8uBIYAAAggggAACCCCAgFuAAMgtwjwCCCCAAAIIIIAAAggkWgECoER7ajkwBBBAAAEEEEAAAQQQcAsQALlFmEcAAQQQQAABBBBAAIFEK0AAlGhPLQeGAAIIIIAAAggggAACbgECILcI8wgggAACCCCAAAIIIJBoBQiAEu2p5cAQQAABBBBAAAEEEEDALUAA5BZhHgEEEEAAAQQQQAABBBKtAAFQoj21HBgCCCCAAAIIIIAAAgi4BQiA3CLMI4AAAggggAACCCCAQKIVIABKtKeWA0MAAQQQQAABBBBAAAG3AAGQW4R5BBBAAAEEEEAAAQQQSLQCBECJ9tRyYAgggAACCCCAAAIIIOAWIAByizCPAAIIIIAAAggggAACiVaAACjRnloODAEEEEAAAQQQQAABBNwCBEBuEeYRQAABBBBAAAEEEEAg0QoQACXaU8uBIYAAAggggAACCCCAgFuAAMgtwjwCCCCAAAIIIIAAAggkWgECoER7ajkwBBBAAAEEEEAAAQQQcAsQALlFmEcAAQQQQAABBBBAAIFEK0AAFCWn9rfffpOTp05ZtUmaJKlkzXqHNc8EAggggAACCCCAwH8jsGDhIune81U5ePB3+d///icvNmsizZo2+W92zl4iLkAAFHHi8HZQoWJl2bXrJ0fh1SuXSfr06Rx5zCCAAAIIIIAAAghETuDChQvysP5d9tPP1k5SpkwhK5YtkZtuvNHKYyJ2BQiA4nHups2YKYMGD3Ws+XiVx6RHty6OvLjMEADFRYuyV0LA/b2/Jtk1Mn7cO5Ind66Q1alV90n5yXYh0XWXf7VIrrnmmpDrUgABBBBA4OoR8F1rjhw9KhfOX7AO/KabnIHHtddeKxkyZJBsWbNKlccqSckSJSRZsqRW+cuZ+PXX36RkqbJ+m3j7rRFSoXw5v3wyYk+AACge52zs+AnSt99Ax5pVn6gigwf2d+TFZYYAKC5alL0SAl7f+zvvzCbzPpwt1xkXomCpbIWKsnv3HkeR7Vs3SooUKRx5zCCAAAIIXN0CXteacEQKFMgvE42bcjfccEM4xUOWqVG7nmzcuMkqlyrV9bJq+VKzOZyVyUTMChAAxePUef1wEgDFA5JVYkrA63uvB1CnVk3p0/u1oMdCABSUh4UIIIAAAv8KBLrWhAN07733yLsTxsqNadKEUzxomfXrN0jvfgPMIChLlszSskVz0b/1SIlDgAAoHufR64eTACgekKwSUwJe33vfAYwYPlQqPfqIb9bvkwDIj4QMBBBAAAEPgWDXGo/iflm5cuaQaVPeS7AnQYcPH5Ybjfd+kiRJ4rcvMmJXgAAoHufO64eTACgekKwSUwJe33vfAaROfYN8Mu9Due22jL4sxycBkIODGQQQQACBAAJe15ocd98tQwZffM3gvPFekPacu23btzLh3Uly7Nhxvy116dRBnm38tF8+GQj4BAiAfBJx+PT64QwWAB0+ckSmTJ0umzZvln1790nKlCkle/a75KEHS0rlSo+adxV4BygOJ4CiV0TA63tvr0jhQgVl6vvveb6EGtcA6Jt162XN2rXy44875Qfjn/7c3Hb7bZIrZ07JmfNuKVywoBQy9ueVho8YKYcPH7EWaUcLnTt2kFOnTsp770+Rzz//Uvbt3y//u+46yZkrp1R+tKI88filZg3nz5+XGbNmy+LFS+W777+Xs2fPih5bkcKFpeIjFeTWW2+1th1oYsuWrTJ95ixj/R2y39jXmTNnJeOtGSRTpkzGz3xFYzsPS/LkyQOtTj4CCCBw1Qp4XWsC/Y31xx+H5PFqNeTAgYMOr5w57pZPP55r5QW6Lhw7dlSWfrVcli1fLpuN39s3pEolnY3g6b4ihWXkW2/LH3/8YW0jadKkxrWkfcDf3Xrd+uDDubLjhx/kwG8H5a8TJyTH3dlFm+Xde889UvS+IgFvElo7MSZOnjxpbGeeLFy02LxWHTx4UFIb7zVlzJhR8ufLK3Xr1jY7frCvw3TcBQiA4m4mcfnh/PiTT6VTl+7GH1+Xxvix77JgwQLy5ohh0qDhM3SDbYdhOuoEvL737kq2aP6itHq5uTtbwg2AtNef3n36yZwPLl24/Db2b8aLLzSRNq1b+jVLKFb8IfnddtHS4ls2fiPPNW0mq1ev9dzcwxXKmz+Hul6zF1sYNyu2eJbLmPFWmT5lstxuBGNe6eixY9K6TXvjgrrMa7GVd/PNN8uI4UPMi6yVyQQCCCCAQJz+xlKujz7+RFoZv3ftKVmyZPLdtk2iQYsmr+vC2q+XS7WadWSvcYPNnoYM6m/eFCtVprzs3bffvkg2rlvt17Ru//5fpUWrNo4OExwr/TujYwkNGzJQypUt47XYzPtk/mfSpWt3+euvEwHL6ILatWrIqz2705FQUKXgCwmAgvt4LvX6Q9Dr7sQnn86Xlm3aObpx9NpgsWJFzbsFP/38s2Mx4wA5OJi5wgJe33t3lfRiM2Xyu35/2IcTAP35559S6bGqfsGLex/2+fLlysrIN4Y67sh5Xejq1qkl06bPtK/qN92zR1fzjtvy5Sv9ltkzMmfOJHNmTpO0adPas+Xg779LnXoNZM+eXxz5gWb0ydTwoYPMp0GBypCPAAIIXG0CXtcar7+xfC6/7N0rpcs+7Ju1PlcuXyIZbrnFnPe6Luh7q5/O/9wq75uISwC0c+cuqfNkA0erA992vD6TJE0iXTt1lGeebui3+J2x46X/gEF++YEytNe7qcb1lt5UAwkFzycACu7juTScH87jx4+bd73//POw5zbCySQACkeJMv+VgNf33mvf+pTkk48+lDSpU1uLwwmARr45SoYOH2GtE+7EoAH9pFrVx63iXhc6a2GQCQ3etPlbOGlAv95So3o1R9HnmjSTxUuWOvJ8MylSJDea0v3tm7U+9d2pTz+aazRtCN2szlqJCQQQQCARC3hda4IFQHv37ZNSZSr4iYQKgPxW+Dcj3ADon3/+Ee0qe+vWbYE2FTB/1oypUtAIYHxpg9Hddu269T2vQYGuH7rus880ki6dO/o2w2ccBAiA4oDlKxrOD+eo0e8Yg6UO861ifeofPGVKl5J8efPK+g0bZcnSpXLixElruX2CAMiuwfSVFvD63jdt8pzMNN6XcQf6jzxcQd4aOdyqcqgASC8kJUuVk9+Npyi+pB3udOvS2Rx07sYb08iqr1fL0GFvmO/V+MroZ9mypWXM22/ppJkCBUAlSxQ3mjU8Jv/8c07enzot4EXrVuNdnUZPNZA77sgi64w23eMnvivGoOCOVM9og93rtVesPG2r3eSFl6x530TbNi2lZo3qks54WqQXuK7de5rvNfmW62fNGtWkf9/e9iymEUAAgatWwOtaEywA0lcNWrZu5/DSJ+w61lywJnC+FbSDhfz585o3orQ53JP16prBSagmcLNmz5GOnbv5NmN9lnroQdFWB/qu97LlK2TGjIvvg1oFjIlGDRtIj25drKzHq9U0O3WwMowJfY/ptVd7mnX549Ah41o7x7wG2svodXLJoi8l0+2327OZDkOAACgMJHeRcH44deT79es3OlbVUYs/mDVdchhfal/Sl6Vr16vveXeYAMinxGc0CHh977t37WwGCvr0w516vf6K1KtT28wOFQDpuz/DjODGnvLlzyfVqz5hz5LPv/hSXmze0pGnF6/5n1x6Z8grANLgZ/zY0UYHDcnMdbXXoMcer2a+YGrfmN6gmG00b7szWzYrW1+efWPEpQBLF+Q2Ok/4eN4HVpmXW7UVbfJqT82aPi/t2ra2Z4k21ahWo7ajuYQOrrdm1XKzcxRHYWYQQACBq1DA61oTKADSptNVqtYweoU74JDSrrC1JYIveV0XtDna66/0kHp16/iKOT5DBUBPP/u8LFu2wrGOXo8+nDPD8ftc3xEq93BFx995+h7oymWLzQBt565d8nDFxxzbuTl9eplj/L3o7lm1T9/+Mm7Cu46y7dq2kmZNmzjymAktQAAU2sivRKgfztOnz0jeAoX9HmX26fWa1Kld0297Eye9J6/36uuXTwDkR0LGFRTw+t5rAPR0o6fk9d59ZeK77zlqd+21KWXunFnmXbBQAZBjxSAz586dlxy573WUyGR0SLB08QIrz+tCN8EYHVx7XbSnTl26mXfU7HnaK+Mbwwbbs2Tbt9vlceMCa0/6lGjFV4vNLK1TvoJF5PTp01YRveu4ZeM6UQN36vHKa/L+lGmO7PcnTZBixe535DGDAAIIXI0CXteaPHlyy5CBF7vBvmA8kv/V6AZ7q9EN9rhxE0Q7n3GnrkazsMZG8zBf8roueN2k8pXXz2ABkLZayJO3oJw7d86+ijn+kPYg505vjhotX3x56Tqly/X91cxGz6Bvjx4jAwcPdawSqG6HjCdBRR940FFWe5eb+v4kRx4zoQUIgEIb+ZXw+uG0350I1B51zaplki5dOr/tBSpPAORHRcYVFPD63vsCIO0qurrRm87277531FDvwn0we4ZUrPy47N69x7FMmycEennzzJkzsnHTZtmx4wc5ajwd0nfqjhn/9HP+Z184thNOALRu7Sq/kcH1gjRk6KVmerrR9sYTmxeMJzf29Ndff0n+QkXtWUZX2JcCoN9//0OKlXjIsVxn7r//Pr88zfDqiW6wcWHX3yEkBBBA4GoX8LrWxMUkd+5cZucANxhdR/uSVwCkQYMGD4FSsABIxyEq8VBZx6raHE1vfF1nDLEQl9StxysyddoMv1XCvYZkyZJZFi/w78zBb4NkOAQIgBwc4c14/XDaA6DNW7YYzVycj1TTpr1J1n7tfFTq25vezchf6D6/d4EIgHxCfEaDgNf33hcAaf20Nxxtx2x/EqL5DZ+qb3YLHU4ApC+T9u43wOhOdKOjuYBuJ1AKJwDyCra8AqDOndrLc42fcexKu7C/N7/zjp49ANLB+PS4Lyd17NBOmjzX+HI2wboIIIBAohDwutaEe2A6Ts6E8WMcnfDoul4BkA6PoF1TB0rBAiB9faGq0ZzZnuzXBXt+qOnnX3hRFi1aEqpYwOX6esW2zesDLmeBtwABkLdL0FyvH057ALRu/XqjN48Gjm3oC9WLvvzMkWefKfFQGb82rARAdiGmr7SA1/feHgBp/abNmCldu/UMq6ruoES7AB08ZJjRScE/Ya3vK3SlAyCvn3df3cL91PGMXmrWNNzilEMAAQQSrYDXtSacgy1SuJCMG/O2pDIGM3UnrwDIfQ1yrxMsAFq/foPUMnpts6dsWbPKgi8+tWeFNd3w6WdlxcpVYZX1KqTvtu7YvsVrEXlBBAiAguAEWuT1w2kPgLxeaNN3AjRC92ryo01sChQu6tfTFAFQoDNA/pUQ8PreuwMgrddLLVrKZ59/GbKK9ovPd99/L5WrVPNbR5sU5MmTx+iUIKukSZNGUhtda79lNF2zpysdAOmTLX3HyZ00qPFKp4xRvk8Y/9IbL7n6UoniD0gBo9MHEgIIIHC1C3hda9REn7DYU8qUKSVDhgyS7Y47pEqVSnJ/0aJWr2/2cjqd0AGQ1+/95MmTG3/nbTA620nq3n3Q+TbtOsjceR87ypQsWdxonufdjPqXX36RzJkzW+V1v7QgsDjCniAACpvqUkGvH057AHT4yBEpUrT4pRX+nfrQeBcib17nC9y6aM3ab6Reff9BsQiA/AjJuIICXt97rwBIX0jVHta055tgyR4AeXUb/3CF8vKa0UPPzTdfChT0HaAChZ2dBVzpAMiriZyOgbT+m6+DHT7LEEAAAQQ8BLyuNfa/sTxWCZmV0AHQiRMnjM5v/AMUbemjLX7cad++/bJ7zx7jRvcF818S4+6edpagN8X79h8oY43OHOzJ69pqX8705QsQAMXDMJwfzodKl/frYje/cYd3xtTJov3T+5L2GFezTj3Zvv07X5b1SQBkUTARBQJe3/tAv6TXfrNOnmzQyK8nRPth2AOgekbZNWvW2heLe6A4Xaijdrdo6exa+koHQFqvylWq+o1PNGPaZClcqJAudqTDhw/Lrp9+cuTlzpUraFt0R2FmEEAAgUQs4HWtibYASPkrVKwsu3Y5f5e7x4jTctpTaJUnqsn3Rqc+vqStglYuW2Le4NPe4Zq99LJvkfmpT4AmjhsjGii5k753evrMpV5H06ROY/a26i7HfHABAqDgPp5Lw/nh7Pnq6zL5/al+61eqVFEaN2oo9957j9nL1Zhx42XhwsV+5TSDAMiThcwrJOD1vQ8UAGkVvcbPsVfdHgB5jafwcosXpWWL5tYq2iNc4+ebyq+//mbl6UQ0BEBe3ZimT5/OHFPIPkDdgYMHRcdM+tboWtueAj0dtpdhGgEEELgaBLyuNdEYAA0dPkJGvjnK75QMHTxAqjxW2Qxe/v77b9HjGTR4mKPcgw+WMAMczdReVIs+UNLo5fQvRxkdaLxDuzaOvClTp0v3nq868sqULiVj3/Gvh6MQM34CBEB+JKEzwvnh1LFDnqheUy6cvxB6gwFKEAAFgCH7igh4fe+DBUB616te/adknfGyqFeyB0DaAUL/AYMcxXSQuvz58knhggXkp927ZdWq1aLNzdwpGgIgHZvhkUpVHAOcaj21hyHtZlXHsNAmgV8uWODX22M+o1msdhVOQgABBBAQM2Do22+ggyIaAyBt1qZDPJw03ul0Jx3IVAe937hpk9/vfC07bMhAM0jyrRcomMqe/S4pdn9RudZ430lbVmza7N/ZgXb8ULqU/1AMvm3z6S1AAOTtEjTX6w9Brx/OQH27uzeufcbrY073DxEBkFuK+Ssp4PW9DxYAaV31AvGY8ej/2LHjflW3B0DfGk1AqzxR3a+MO0ObDZw/f96RHQ0BkFbo8y++lBebe3d84KiwbSZVqutlutEsNlfOnLZcJhFAAIGrV8DrWuP1N1ZchBL6HSDfvqdOmy7dejifyPiWBfrMaQRGc2bNcAyUrb2f1qhdT3QoiLikGtWryoB+feKyCmX/FSAAisdXIdwfTn2s2dx4XyFQEzffrgcO6Cuj3n7Hry0pAZBPiM9oEPD63ocKgLTen8z/TF5u6XyMr/n2AEjnZ8ycLV279/QLcHSZL/Xo3kVee935yz5aAiCt49x5H0mXbj2MsZDO+Koc8POmm26UEcOHyAPFigUswwIEEEDgahPwutZEawCk52bc+InSf+Bg412fcyFPVdmypWX4kEGe73zq+6EtjGvlqq9Xh9yOFqhc6VHR5nbaDTYp7gIEQHE3k4nvviev9+7rWDNQFK4/EJOnTDV7+HD3iqXvAXXr0snsCeTRyk/Ijh8uvSCn773pwKk33XSTYz/MIHClBLy+96/06CZPNXgyZJU6d+1uBji+gvok59stG0S777SnhYsWy6jRY2Tbtm2OgVD1jlmb1q2kfLkykiN3XseFxj3GlntMrUD7Gv3OWBkwaIh99+IV0Gkwc2+BQo7mrO6gy76RH3/cKeMmTJSPPv7Us8medufdoH49s9tSr/Eq7NtiGgEEELjaBLyuNYH+xgrXJtzrgn17OryBfQBvbZa9ad0auf766+3FzOmNmzbLhImT5Isvv3Rcu3RhihTJzaf85cqVlRdfaBKwq24tq03Hpxvj6U0xnix5dY6l17OCBfJLu7atzebVug4pfgIEQPFzi/Na2mznwIGDoi9Ba3O3u+7M5jlYV5w3zAoIJEIBfXH0ByOQ0Keod2TJHJM3AvR9pZ9+3m102vCrObirdoqgA+WlTZs2EZ4xDgkBBBBAQMd11KDptwMHzBt1mTNnkhx33x2vpzTahHzf/v1y9OhR4+/GpJIt2x2SxRj/x33jEPX4CRAAxc+NtRBAAAEEEEAAAQQQQCAGBQiAYvCkUWUEEEAAAQQQQAABBBCInwABUPzcWAsBBBBAAAEEEEAAAQRiUIAAKAZPGlVGAAEEEEAAAQQQQACB+AkQAMXPjbUQQAABBBBAAAEEEEAgBgUIgGLwpFFlBBBAAAEEEEAAAQQQiJ8AAVD83FgLAQQQQAABBBBAAAEEYlCAACgGTxpVRgABBBBAAAEEEEAAgfgJEADFz421EEAAAQQQQAABBBBAIAYFCIBi8KRRZQQQQAABBBBAAAEEEIifAAFQ/NxYCwEEEEAAAQQQQAABBGJQgAAoBk8aVUYAAQQQQAABBBBAAIH4CRAAxc+NtRBAAAEEEEAAAQQQQCAGBQiAYvCkUWUEEEAAAQQQQAABBBCInwABUPzcWAsBBBBAAAEEEEAAAQRiUIAAKAZPGlVGAAEEEEAAAQQQQACB+AkQAMXPjbUQQAABBBBAAAEEEEAgBgUIgGLwpFFlBBBAAAEEEEAAAQQQiJ8AAVD83FgLAQQQQAABBBBAAAEEYlCAACgGTxpVRgABBBBAAAEEEEAAgfgJEADFz421EEAAAQQQQAABBBBAIAYFCIBi8KRRZQQQQAABBBBAAAEEEIifAAFQ/NxYCwEEEEAAAQQQQAABBGJQgAAoBk8aVUYAAQQQQAABBBBAAIH4CRAAxc+NtRBAAAEEEEAAAQQQQCAGBQiAYvCkUWUEEEAAAQQQQAABBBCInwABUPzcWAsBBBBAAAEEEEAAAQRiUOCqCoDuypEnBk8RVUYAAQQQQAABBBBAAIGEEiAASihJtoMAAggggAACCCCAAAJRL0AAFPWniAoigAACCCCAAAIIIIBAQgkQACWUJNtBAAEEEEAAAQQQQACBqBe4qgKgqD8bVBABBBBAAAEEEEAAAQQiKkAAFFFeNo4AAggggAACCCCAAALRJEAAFE1ng7oggAACCCCAAAIIIIBARAUIgCLKy8YRQAABBBBAAAEEEEAgmgQIgKLpbFAXBBBAAAEEEEAAAQQQiKgAAVBEedk4AggggAACCCCAAAIIRJMAAVA0nQ3qggACCCCAAAIIIIAAAhEVIACKKC8bRwABBBBAAAEEEEAAgWgSIACKprNBXRBAAAEEEEAAAQQQQCCiAgRAEeVl4wgggAACCCCAAAIIIBBNAgRA0XQ2qAsCCCCAAAIIIIAAAghEVIAAKKK8bBwBBBBAAAEEEEAAAQSiSYAAKJrOBnVBAAEEEEAAAQQQQACBiAoQAEWUl40jgAACCCCAAAIIIIBANAkQAEXT2aAuCCCAAAIIIIAAAgggEFEBAqCI8rJxBBBAAAEEEEAAAQQQiCYBAqBoOhvUBQEEEEAAAQQQQAABBCIqQAAUUV42jgACCCCAAAIIIIAAAtEkQAAUTWeDuiCAAAIIIIAAAggggEBEBQiAIsrLxhFAAAEEEEAAAQQQQCCaBAiAoulsUBcEEEAAAQQQQAABBBCIqAABUER52TgCCCCAAAIIIIAAAghEkwABUDSdDeqCAAIIIIAAAggggAACERUgAIooLxtHAAEEEEAAAQQQQACBaBIgAIqms0FdEEAAAQQQQAABBBBAIKICBEAR5WXjCCCAAAIIIIAAAgggEE0CBEDRdDaoCwIIIIAAAggggAACCERUgAAoorxsHAEEEEAAAQQQQAABBKJJgAAoms4GdUEAAQQQQAABBBCImMDx48fl+x0/yK5dP8m5c/9ItqxZJUeOuyVt2rTx2ufOXbvMbe3bv19uufkWuevObJI9e3ZJlixpnLeX0HWLcwWuohUIgBLgZP/ww4/SsUs32bNnj2NrZUqXkoH9+zrymEEgVgVWrFwlLVu3NaufJUsWmTNzWqweCvVGAAEEEIhigbXfrJNmL7WIUw1D/c118uRJeWfseBk7boKcOnXKse1kyZLJk3Vry8stXgo7EFq3fr306TdQNm7c5NiWztx1153SsX1bKVe2jN8yr4yErpvXPshzChAAOT3iNHfhwgWZMHGSDBoyVM6cOeu3btkypWTM6FF++WQgEIsCCxYukqbNmptVz3T7bbJ08YJYPAy/Op86fVoGDhoi58+fl6RJk0r7dm3kumuv9StHBgIIIIDAfyPw0cefSKs27eO0s2B/c504cULq1m8o3367Peg2M2a8VWZNnyK33npr0HIffDhP2nfsJMafgUFTq5ebS4vmLwYtk9B1C7ozFloCBEAWRdwmfv31N+PL31lWfb064IrBfhgDrsQCBKJUILEGQH/8cUjuL/6gpb565TJJnz6dNc8EAggggMB/K6A3l3v16WfuVJ/OhNOcrHz5cjJi2BC/iurNrUbPPCcrV31tLcue/S7z6cw111wjy1eslE2bNlvL7r47u8yeMVWuv/56K88+oa0hGj/XVP755x8zW+v3WOVHjWZvd8nevftl3kcfO54w9evTS2rVrG7fhDWd0HWzNsxESAECoJBE/gXmzvtIer76uhw//pf/QlsOAZANg8mYFyAAivlTyAEggAACMSEwcPBQeXv0GLOuo958Qx6uUD7e9XY/Tar/ZF3p3rWzJE+e3NymtuYZYzSN6z9wsLWP1i1bSPOXmlnzvgkNWCpWflx27txlZqVLl1YmjH1H7rknj6+I7PnlF3muSTOrTJrUqeWrJQskVapUVhnfRELWzbdNPsMTIAAKz8kq9e3276TKE96RvFXo3wkCILcI87EsQAAUy2ePuiOAAAKxI9ChUxeZPedDs8KzjKcxBQvkj1flNWB59LEn5Mcfd5rrF72viEyeNNHziZK26pnzwVyzXKCg5ZNP58vLrS6+C5skiciEcWPkwZIl/Oqm+3uiek05ffqMucwroErouvlVgoygAgRAQXn8F27dus34UtdyLCj+QDG5r0hhGT7iTUc+AZCDg5kYF4hEAKQ93mgnIt/v2CGH/jwsOYymB3ny5JZMt98eUOvcuXOyddu3RtvrC5IyZQrJnSuXWVYvNBs3bTK3d/ToUbnNeE/pnty5JWfOHJ7b2r17jxw+ckT+/PNPeb7ppTbaY0a/Zb0EmyZNarOHIM8NGJn6++BH407g/l/3S7KkyUTbj+fMkSPgPnU7CVX/QHUiHwEEEIh1AW1itvSrZeZhLFuyUG67LWO8Dmn9+g1Sq259a90Z0yZL4UKFrHn7xIGDB+XBUuXM39Ga379vL6lZw3nDW5vSaZM5TSWKPyCTJo4zp73+6/HKa/L+lGnmIq2/Hoc9JXTd7NtmOrQAAVBoI0cJewCkf3x1aNdWGjVsIDNnzZHOXbs7yhIAOTiYiXGBhAyANOjQi8P8z77wVNG7b506tpfatWr4Ld/1009S4ZHKZn7q1DfIhm9WizYj6DdgkPz22wG/8g8Uu196dOtidnNqX/jkU41k9eq19iy/6QLGXUdtC+5O8z/7XEaMfMvsStW9TOfz58srrVu97HlnMKHq77Vf8hBAAIHEIFClag2zwwJ9yrJ96yaruVpcj+2tt0fL4CHDzdW0Z7Yv5n8cdBNNmr0kCxcuNstUq/qEDBpwqSdffecnf6GixlOd0+byN4YPkcqPVgy4vW1GhwuPG8fhS0sWfSGZM2XyzUpC1s3aKBNhCxAAhU11saAvANL2nkMG9jdfetMlM2bOJgCKoyXFY0sgoQKgb9atlxebvyyHDv0ZEqCl0SWpdktqT+4AomOHdtK1W097Eb9pDZTGjxktBQsWsJbFNwAaZLRNH/Vv23RrYx4TSZImkS4dO0jjZxo5liZU/R0bZQYBBBBIRAIPlCwlBw/+LjfddKN8s/riExc9PA1CDh06ZD6l973DE+ywGzU2ntgsv7h+1SeqyGDj77ZgaeSbo2To8BFmEfdTmw0bNkrNOk9aqy9e8LlkyZLZmndPaBO33PcWsDpLcD9RSsi6uffNfGgBAqDQRo4S+/btl1lz5shLzV4Q7T3ElwiAfBJ8JlaBhAqAqhpNSLcYTcc06VPU0qVKSYH8+eR2o8na3r37ZMq06eanz3HypPHyQLFivlmxBxCaqRfBv//+W2688UZ56MESRnPUIkaztJ2yZOlXos3cfOmWW26WBZ9/avXso80r9hsD1x0xmssNGjzMV0zatW0lN6ZJY85nyJBBypYpbS3Trk/bdehkzV9rdJetbcpLlihu1kGbRmiAp/XxpYnjnW3EE6r+vu3ziQACCCQmAW3enDNPPrMpWi6jCfPsmdNl2owZZnOyn3/ebQ5ZoE+GMmbMKFUeqywNGzwZsNvqh0qXFx2gVNOLzZpK29Ytg1K5f8dv37pRUqRIYa4ze84H0qFTV3Nab3Bt37Ix5JOp0uUell9+2Wuu80LT56V929bW/hOybtZGmQhbgAAobKrgBQmAgvuwNPYFEiIA0gBB21Br0gvYG8OGSqVHH3HgnD17VqrXrCPbv/vezNeeePQFUl9yBxCar03Vpr0/ye9i1Kdvfxk34V3fqtK0yXNGs9U21rxOhNsN9rFjx6V02Qpy9Ngxc30NuOZ9MMsM3Owb/O7776VGrXpWMwm9i7hk4RfGS7fJzGIJXX/7vplGAAEEYl3g8OHDUuT+EuZhFClcSM5fOC/r128MeFg6bMG0Ke9JtqxZ/crkK1hETpw4aeb36fWa1Kld06+MPUMHYK375FNW1srlSyTDLbeY8+PGTzQGPh1gTmfIcIusXLbEKhdookHDZ6zhUurUriV9er1qFU3IulkbZSJsAQKgsKmCFyQACu7D0tgXSIgASO/e6ejZmm6++WbjiU1JTxgdR6F12w7mMn3CMtUIbnzJHUBoN6QffThb9GmNO2mHA3oBWrP2G3ORXrRWfLXYCL6SWEXDDYDmfPChMfZXF3M9vfs30ej9R5/8eCV7/XX5hHHvWMea0PX32j95CCCAQKwKaMc42tW0O+kT9zvvzGYMQXLceqriK3PrrRnMIMj+jo02l9MnSb707oSxAX9n+8roGI8lS5X1zcr8j+da748OHjpc3ho12lxWqFABmTltilUu0ESnLt3Md8R1ecVHKsibIy6+j5TQdQu0f/IDCxAABbaJ0xICoDhxUTgGBRIiAAr3sLds2SpVa9Q2i9+cPr18vfIra1V3ANGjexdp9FQDa7l7YpvRY9zj1S7d9dOnNvYxG8INgOwvx5YvV1ZGjxrp3pVjvnqtutbgevXq1pZer71iLk/o+jt2ygwCCCAQ4wI6YOlTjRpbR6HvcLZv20bq1qklSZMmNfM1UJkxa5a8MeItq1wmoxn1/E/myf/+9z8zT5/WFypyqfn0px99GLSHTl3JHZjMmj7Fenf0tV595N1Jk81tP/JwBXlr5MVgxswI8J/9ndGSJYvLu+PHmiUTum4Bdk92EAECoCA4cVlEABQXLcrGokCkAqAzZ87IEaM7ah1Y+JhxwTr+11+yes1aGf3OxQtFqABo+tTJos0kAiVtUndv/sJW16bDhw4yRu2uZBUPNwB6+NHHrIHt3M3yrI3ZJroYHTNMnzHTzClWrKi8b4w9ockdAF1u/c2N8h8CCCCQSATsT9C1E4Q5s6ZLlszenQ3odWLAoCHWkfft/brVe6i+i5nrnkvjB7337njRYUuCpQMHDkjxB8tYRexB0+Ahw4ye294xl+k1R393h0pduvaQ6TNnmcXsQVNC1y1UPVjuL0AA5G8SrxwCoHixsVIMCSRkALRh4yaz6+qvv14tO374wRjTJzBEqABIu8HWO4TBkj140RHAn250qY13uAGQ3kn0vf8TqvtTrcvESe/J670udqFq737VHQBdbv2DHTfLEEAAgVgT+GXvXlm2bIVZbR0XTjvJCZbsPXpqs2ptcuxLeQsUkZMnT5qz/fr0klo1neP6+Mr5PrWJdu26l1oUrFy22GpePXb8BOnbb6BZVMd8W750kW+1gJ8Nn35WVqxcZS6vU6um9On9mlU2IetmbZSJsAUIgMKmCl6QACi4D0tjXyAhAiDt3WfM2PEy0OhKWrsIDScFC4Cuu+462bppXcjNaHMKbVahyT0id7gBUPZc98iF8xcjtVBPbXQ/OlZQ85cv9vijPdCtWr5Usx1PgBKi/uZG+Q8BBBC4SgV0TLZhb1xskqwdISz44lNL4sHS5YzePn8151s0f1FavdzcWuY1MXfeR9KmXUdr0bbNG+Taa1Oa87Nmz5GOnbuZ0/oe6PfbNlud21gruCbKVqho9Uba5PlnpWP7tlaJhKybtVEmwhYgAAqbKnhBAqDgPiyNfYGECIDGjBsv/foPsjC0J7UHjXbR2bJllXRp05lPctIYXVBrd9g6UKqmYAGQLl+1YqncYnSoECzZuxt9tWd3aVC/nlU83ACo6AMlrbGLBvTrLTWqV7O24TXxtjFWkAZ6mrQr10+M9uea3E+ALrf+5kb5DwEEELhKBXRIg8bPNTWP/oYbUsnGdWssCXsvbO6BTa1Ctok3jU4OhhidHWiy37jSeXcPce6BTbWMPekNPx0HyDcsQm+jB7i6Rk9wvpSQdfNtk8/wBQiAwrcKWpIAKCgPCxOBQEIEQHXqNTDHyVGOcuXKyPAhg0SfgriTvgP0ZIOLA4iGCoDc4+y4t3XixAlj9O77rGZ2I98YKo9WfMQqFm4AVLlKVfnu+x3mes81flo6d+pgbcNrok27DjJ33sfmIvvLr+4A6HLr77Vv8hBAAIFYFVi/foMc/P13s/qFChUMeYPr/SnTrBtmmTLdLksXfWkduv3pUO5cOeXjeR9Yy7wmWrRsLZ/O/9xc9HiVyjJ08MUmb5qh75MWKFxUzpw5ay5/+60RUqF8OXPa678ff9wpj1SqYi1a+MV8yZr1Dms+IetmbZSJsAUIgMKmCl6QACi4D0tjX+ByAyDturRw0eJWZwSLvvxM7rgjiyeMvbvRUAFQqA4Jli1fIU83ft7aj3u/7gDIPu6DtZIx0b5jZ5nzwVwzK9QLsOfOnZdHjE4Tfvr5Z7O8ffwhdwB0ufU3d8B/CCCAQCIR0LHidMw4Tc883VC6dbk0+LTXIbZq0854p/Ris7eiRe+TqZPftYrZb6Zp5tw5M+Xee++xltsn/vzzT7MDhEBPbLSs/X2jsmVKyZjRo+ybcEz3NsahG//vOHTup0laMKHr5tg5MyEFCIBCEoVXgAAoPCdKxa7A5QZAhw4dkqIPPGgBLF7wuWTJ4t+zz19GL3DVjC6wd/30s1k2VACUPHlyc/wHrxdljxw9Kk9UrSF79+03t5U9+13y+acfWXXQCb3o3VespJUX6AK5eMlSea5JM6ucXpT14uyVtFciXy92uty+TXcAdLn199o/eQgggECsCgwdPkJGvnkxsEiTOrV8tWSBpEqVyvNwtn273Wgt0FD++uuEubxd21bSrGkTq6yOBVfu4UetcYNKl3pIxo1521pun3j19d4y6b33zSztSlv3e5PRTNue3O8BzZz6vtVNtr3c3n37RFsN+OrVrOnz0q7txXdCfeUSum6+7fIZngABUHhOIUsRAIUkokCMC1xuAKSHb29GVqlSRRk8oJ+kSJHCkjlw8KA0fraJ1dRMF4QKgLSMDoKn4ytogONLOpp42/adRNuH+5LXmEHaTvve/IXk9OkzZrGaNapJz+5drbEkfOvqXcFKjz1hBWbJkiUzxoF4Q/QuoG9sCr2gfTh3nnTo1NW3mrgHzHMHQFrwcupv7YgJBBBAIBEI7Nnzi5R/pJLVWuDuu7PLO2+/6dcV9o4dP5hPZA4fPmIedYoUyWXZkkWSPn06h8LMWXNEByT1Je0MoWWLlxwDYtsHutZyLxgBS3tXwKL5+jteOzbQ91Q13X7bbTL5vQmOuum1R99J2myMZ6cpUDClyxKybro9UvgCBEDhWwUtSQAUlIeFiUDAHgDp4WhgEk7SJglvDBtsFu0/cLC8M2actZqO7F28eDHz4rF16zbZsnWr2b76mmuuMQek04KhAiDtNOGo8aRHkz5Rypc3r2g3qpu3bLF6bdNluXPnMp7EzDJ67bk4kJ7m+VIV4ynRt8adRF/SXn/uL1rUHDC1beuWvmzZsGGj1KpX37Fd7chBm8Sdv3Be1hjvLvnu+OlKKVOmMNuc35ktm7UNdwCUEPW3Ns4EAgggkAgEho8Y6RjkNFWq640xfB6Q/PnyyqnTp2X16jWycdNmq4MB/V076s0RUuqhS60MfAw6uGntuvVl0+Ytviy5r0hh8/2dJEmSyNdr1sjChYutZTqg6ofGgNnupz++Al8uWCjNXmphvVeq77HWr1dHMmXKJH8YLR2mTptudZij63Qx3hd91nhv1CsldN289kGetwABkLdLnHMJgOJMxgoxJuAOgMKt/v333ydT3rvYJlubtzU3XjL1jfHgtQ0d0+f1V3tKy9btzMXBAiAtO/KNYfKM8dRI78wFSvpkaNKEsdZ4Du5yS5Z+Jc8+/4I7WwoUyC+zZ0x15KtD67YdrLElHAttMxoY6Ujh9xsBoD3ZA6CEqr99+0wjgAACiUFg8vtTRZulhRoyQW9YjR71ppQsUTzgYetTmVp16lvvZQYqqAOvzpw+RbQ77WDJPs5bsHKNGjaQHt26BCsiCV23oDtjoSVAAGRRXN6E+/Gpbk17B9FeQkgIJAYB9zsw4R5TieIPyKSJl576aKAywHgSNP+zL2Tf/ovv5ui2jBtxZu9s7du1kTNGc7SKlR83d6HNw1Z8denunDuA0IFEf/xxp/TtP9Bo7vaVdVdOV9YuUes/WU90/AVtSx4srVn7jUyfMdMcv8fXy0/BggVklnExdCft3GDsuAlmL2+nTp1yLNZ9Vq9WVZ5r/IzcdltGxzKdiVT9/XZEBgIIIBDjAtqEuUfPV633ON2HowOldu3cUYrdX9S9yG9e3/fU8YKmTZ/pecOscqVHpX271pLZeJITTtKbYf0HDDJ+p//sV1w7PWjTqqVok2p9yhQqJXTdQu2P5cbfHEb79wtAIIAAAldCQHtg+3n3brnOaAp3553ZPLvEdtfLK4DwldGmETuNYEg/06VLa17ItJOBuKQzZ87I8eN/mQGZNk/T5niBknaLqoPsabMHvUupwdptGTMGXSfS9Q9UV/IRQACBWBTQP1M3btwk3+3YIUeOHDFucl2QWzNkMJs1586VK86HpL+zt27bJj//vNu883a70eQtj9FEOtRTH68d6Q299UbT6J27dpkd6qS+IbXcdVc2o/VAAfO65rVOsLyErFuw/bCMAIjvAAIIxJhAsAAiFg4l1usfC8bUEQEEEEAAgWACPAEKpsMyBBCIOoFYDyBivf5R94WgQggggAACCMRRgAAojmAURwCBKysQ6wFErNf/yp599o4AAggggMDlCxAAXb4hW0AAgf9QINYDiFiv/394qtkVAggggAACEREgAIoIKxtFAIFICWiXodrjmyYdHTxUF6ORqkd8txvr9Y/vcbMeAggggAAC0SJAABQtZ4J6IIAAAggggAACCCCAQMQFCIAiTswOEEAAAQQQQAABBBBAIFoECICi5UxQDwQQQAABBBBAAAEEEIi4AAFQxInZAQIIIIAAAggggAACCESLAAFQtJwJ6oEAAggggAACCCCAAAIRFyAAijgxO0AAAQQQQAABBBBAAIFoESAAipYzQT0QQAABBBBAAAEEEEAg4gIEQBEnZgcIIIAAAggggAACCCAQLQIEQNFyJqgHAggggAACCCCAAAIIRFyAACjixOwAAQQQQAABBBBAAAEEokWAAChazgT1QAABBBBAAAEEEEAAgYgLEABFnJgdIIAAAggggAACCCCAQLQIEABFy5mgHggggAACCCCAAAIIIBBxgf8DAAD//y5Pu5IAACTZSURBVO3dCbwNdf/A8a/8Sz2hkBTqqaeSaEGUNdJql33fEg+RZJdKtshSliwhsmQNpWghJLRKSUVZehRFUT3VQ6H/7/u7rxlzzj333OPe28w5nc/v9eLM8pvfzLzn3Dv3O/Nbsv1pkpAQQAABBBBAAAEEEEAAgSQQyEYAlARXmVNEAAEEEEAAAQQQQAABK0AAxBcBAQQQQAABBBBAAAEEkkaAAChpLjUnigACCCCAAAIIIIAAAgRAfAcQQAABBBBAAAEEEEAgaQQIgJLmUnOiCCCAAAIIIIAAAgggQADEdwABBBBAAAEEEEAAAQSSRoAAKGkuNSeKAAIIIIAAAggggAACBEB8BxBAAAEEEEAAAQQQQCBpBAiAkuZSc6IIIIAAAggggAACCCBAAMR3AAEEEEAAAQQQQAABBJJGgAAoaS41J4oAAggggAACCCCAAAIEQHwHEEAAAQQQQAABBBBAIGkECICS5lJzoggggAACCCCAAAIIIEAAxHcAAQQQQAABBBBAAAEEkkaAAChpLjUnigACCCCAAAIIIIAAAgRAfAcQQAABBBBAAAEEEEAgaQQIgJLmUnOiCCCAAAIIIIAAAgggQADEdwABBBBAAAEEEEAAAQSSRoAAKGkuNSeKAAIIIIAAAggggAACBEB8BxBAAAEEEEAAAQQQQCBpBAiAkuZSc6IIIIAAAggggAACCCBAAMR3AAEEEEAAAQQQQAABBJJGgAAoaS41J4oAAggggAACCCCAAAIEQHwHEEAAAQQQQAABBBBAIGkECICS5lJzoggggAACCCCAAAIIIEAAxHcAAQQQQAABBBBAAAEEkkaAAChpLjUnigACCCCAAAIIIIAAAgRAfAcQQAABBBBAAAEEEEAgaQQIgJLmUnOiCCCAAAIIIIAAAgggQADEdwABBBBAAAEEEEAAAQSSRoAAKGkuNSeKAAIIIIAAAggggAACBEB8BxBAAAEEEEAAAQQQQCBpBAiAkuZSc6IIIIAAAggggAACCCBAAMR3AAEEEEAAAQQQQAABBJJGgAAoaS41J4oAAggggAACCCCAAAIEQHwHEEAAAQQQQAABBBBAIGkEkioA2rN3f9JcWE4UAQQQQAABBBBAAAEEUgsQAKU2YQkCCCCAAAIIIIAAAgj8TQWSKgD6m15DTgsBBBBAAAEEEEAAAQRiFCAAihGKbAgggAACCCCAAAIIIJD4AgRAiX8NOQMEEEAAAQQQQAABBBCIUYAAKEYosiGAAAIIIIAAAggggEDiCxAAJf415AwQQAABBBBAAAEEEEAgRgECoBihyIYAAggggAACCCCAAAKJL0AAlPjXkDNAAAEEEEAAAQQQQACBGAUIgGKEIhsCCCCAAAIIIIAAAggkvgABUOJfQ84AAQQQQAABBBBAAAEEYhQgAIoRimwIIIAAAggggAACCCCQ+AIEQIl/DTkDBBBAAAEEEEAAAQQQiFGAAChGKLIhgAACCCCAAAIIIIBA4gsQACX+NeQMEEAAAQQQQAABBBBAIEYBAqAYociGAAIIIIAAAggggAACiS9AAJT415AzQAABBBBAAAEEEEAAgRgFCIBihCIbAggggAACCCCAAAIIJL4AAVDiX0POAAEEEEAAAQQQQAABBGIUIACKEYpsCCCAAAIIIIAAAgggkPgCBECJfw05AwQQQAABBBBAAAEEEIhRgAAoRiiyIYAAAggggAACCCCAQOILEAAl/jXkDBBAAAEEEEAAAQQQQCBGAQKgGKHIhgACCCCAAAIIIIAAAokvQACU+NeQM0AAAQQQQAABBBBAAIEYBQiAYoQiGwIIIIAAAggggAACCCS+AAFQ4l9DzgABBBBAAAEEEEAAAQRiFCAAihGKbAgggAACCCCAAAIIIJD4AgRAiX8NOQMEEEAAAQQQQAABBBCIUYAAKEYosiGAAAIIIIAAAggggEDiCxAAJf415AwQQMAngePHT8jOnTvliisul2zZsvm0V3aDAAIIIIAAAlkpQACURZq79+yRzz7bLgcOHpBff/1N8uY5VwoUKCA3lCktOXPmzKK9UAwCCJyqQMXKVeXYH8ck22nZ5JUVy+Wc3LlPtQibf9++/dK4WQvRz4svvkiWLJovefLkccuaOWu2TJ481c43bFhfenTv5q5jAgEEEEAg4wL68Gn37t2y56uv5OtvvpGCF14o11x9tVx44QUZKnTnrl2ya9du+WbfPjk///ly2b8ulcsvv1yyZz/tlMv773//K9t3fGHLO378mFx6ySVSpMgVkjdv3lMuiw38EyAAyqT10mUvyvQZM03w83nEkk4//XS59ZabZfCggZLn3HMj5mEhAokgsGHjJmnXvqOcffbZcpoJJu5u10Y6deyQoUMfO36CzJ7znJwwN7Vff/tN5syaIWVKX5+hstLb6LIixdws72xcL+edl8+dP5WJJ8dNkPETJrqbDOjfV9q2aeXOjxv/lIw1/zQ1a9pYBj/6iLuOCQQQQACBUxc4ceKEvPTyCvu7d9fuPakKyJcvr9SuVVP69Ooh+vdWeumDzZtl2PCRsmXLR6myXnbZv2w5t1S9OdW6SAt+M/eup6c9I9Omz5D//e9/IVmyZ88uzZo0kvu63ksgFCITPzMEQBm8Fv87ckTu69Zd3lizLqYS9Inx1MkTzROGy2LKTyYE4k1g1eo3pGOnLu5hFShwvqxfu9o8McvuLotl4o8//pDylarIoUOH3ewzpj8tN1Wq6M5n5URWBUDzFy6SBwecDGrGj31Cqle7wz1UAiCXggkEEEAg0wL61uf+Hj1lxYpX0i3rmquLy4TxT0rhQoXSzKsPrHv16St//plmFrvi/vu6SNcunaNm+vXXX6VJ81by6aefRc2nb6gWL3hOLrggY2+qohbOykwJEABlgE+fSHTu0k1eX7X6lLbOmfNsmTplkq0Wd0obkhmBOBAID4D0kCY9NU5uv+3WUzq65S+9LPc/0Ctkm0QIgPShx4jHR8mGDRvl5iqVpbd54vh///d/7nkQALkUTCCAAAKZFujZu58sXfaCW07u3Lmk8k2V5KLChWX/t9+Jvs35z3/2uuv1bdC6N16Xs846y13mTDg1GI4dO2YX6YO7mjWq2YfSX3+9T15c/lLIW5zhw4ZIwwb1nM1DPvVvwNZt28vGTW+7y/Xhtr450nvCW+Ye8dFHH7vrtM3o8wvn2doT7kImAhcgAMrAJdDXsd2690y1pf7QlSxxnf2SbzFf/oMHD6bKU6zYVbJ82fOplrMAgXgXiBQAVaxQXp6dMe2UDr1Js5by3vsfhGyTCAFQyAFHmCEAioDCIgQQQCADAuveXG+rXDubVq1aRYYPHSz58p2swnz8+HEZ/9QkmTBxkvx5IuW1Tr++vaR9u7bOZvZTA5Y7a9Q2HdjssvMaKM2Y9rQUL36yevR/9u6V9h06uXm0reiba1dFbMMd/hCvebMm8tCD/dwqeH+aV0xTTdW4ESNHu8fRvVtX6XJvJ3eeieAFCIAycA3qNWwSEt1rEdddd63MnD5V9AmFJn11q69aX3jxJTvv/e/l5Uul6JVXehcxjUDcC0QKgLQjtFWvrpRLLvlnTMe/wzQUrVazTqq8BECpSFiAAAIIJKWABhB16jWUbds+teefN28eWf3aK+7fV+EoAx4eKPPmL7SL8+fPL2+ueV3OOOMMN9vLK1bKfff3sPN6z5ph/larVLGCu96Z+PLLnWa/DeTIkaN2UaSgRYMpvYdpXk3a0dWcWTMjdp7Qq08/WbI05Q1WtIDKFsR/vgsQAGWA/IqiV4v+EDjpzDNziDauDu/tTfPcUK6iHD78o5PVfk4Y94RUu/Nk24GQlcwgEKcCkQIgPdT27dpIv769YzrqgY8Oltlz56XKG0sA9Mkn2+RL8wRv3/59kv207Lb3nyuLFJErryySqjzvgkhtgPQBxcdbt8oXX3wp3377ra2ffblpAFuqVEnvpiHTelPe+skn5mf/TzndVHPwPj3UjKf6BuhD0wh3l+mJaP/+b+1b48KFC8n1Zv/0HBTCzgwCCCSZwPsfbJbGTVu4Zz3isSHSoH7k6mia6ceffpKHTBDk/F3Wt08vW03OKUCrq2m1NE0VypeTWTOnO6tSfT48cJDMfW6+XV6w4IW2nas30+bNH0rDJs3dRQvnzzG/t0u5896J7w4ckEqVbzEPxI/bxemdh3dbpv96AQKgDBh7/6DSzcuVvdH2YhWpqLZ3d5A3178Vsurx4UOlfr27QpYxg0C8C3gDoPPPzy8HDqRU8TznnHNk01trJUeOHFFPQXvMKVexsvzyy682n/bG9v33P9jpaAHQyldetT0AaTejkdJ1114j3e+/L+ITPc3v/XnVBxXbd+yQIUOHy44vUpd3VdErpX+/PlK+XNlUu9JjvbF8JXf5zh0pTyedBbEGQOo45omxtttUZ1vnM0eOM6Ru7dqiN3DnbbKzjk8EEEAgGQS8v0u1do22n8nouGva5ue6UjeYtzpHLN24sWOkRrU702TcZjo1qF23vrt+7RuvhQRTEydPkdFjxtr12mvcaytT1/JxNzYTHTrdK6tXr7GL7qpbR0Y9/ph3NdMBChAAZQBfG9550wUFLpBChQp6F7nTd1Sv5b4qdRa+uHRxqqfHzjo+EYhXAW8AdNutt9g3J1vNWxlNI80v9Xrml3u0NG/BQhnw0ECbpWTJEpLLjI/lPBxIKwAaNfoJmTRlarRi7Tod46d/n97Srm3rVHm9AdDIEcOkd78H3friqTKbBdqIVW9StWrWCFmdFQHQlKenycjRY9LthUgb1D77zFR6Dgq5AswggEAyCDRt3krefe99e6r6cKtL53+7p61v4nXsnuPHjttaAN6qbm4mz8SHH26RBo2buUvWrHrVjuPmLgib0LdIV11dQpzOEsLf2rRuZ94mvZXyNqlunVoyeuSIsBJCZyeYNkpPjB1vF0Z6oxSamzk/BQiA/kLt8EZ8uivtp37rlvfdxnJ/4e4pGoEsFQgPgLTHm779B9h9lDCdf+hTumipZp167nhZetN44cXlUQMg7bK0Z+++bpFnnnmmrW+tHS9oV9papUGrSui0k2aaoCG8brc3ADrttNNsNQntsESrQlSoUE4OfHdA1poGt96xvM4443R55eXl8s9/XuwUbd9WZeYNkPYa+e/OXd3ytE647r+MqUOu1eC0RyGt5uekG28sI3Nnzczwk0+nHD4RQACBRBK4tmRpO6C8HvPECWPljttvkxUrX5UZzz4r27fvcNdpe55ixYpJ86ZNbBW5SIOYPr9kqfTu+6A9fX1Q9tnWLen+/VXllttl796v7Tb/7niP9OrR3U7rfzdVudUGYDrduVPHdAe8Dr+PffbJlpD2SVoOKRgBAqC/yP2HH36QGrXukoPffx+yh1Ytm8sjD6X8MIasYAaBOBcID4CeHDNKypsqbT/9/LM98uUvLJFiVxWNeBba3qVBo6Z2XZ4858rG9WvtmEJpvQH6+ef/SpWqt7lln2sGEdY3p+FvWj/fvl3qN2zqVm/QJ2xrV78WMjaRNwDSA9A8WlaePHlCjjV8nJ+qVavYsbucTJl5A6SD5FW97U632uAFFxSQJYvmS4ECBZzi7efQx0bIMzOedZc9MfpxO8ifu4AJBBBA4G8soA+0iha/zj3DF5YsMgNMT0h3zMU6tWuaN/fDzSDdp7nb6sT0Z2aagU8ft8t07Dq996SXWrRqK5vefsdma9yooQwb8qi7iTc4GzZkkDRu1MBdF2lCezzVnk+dtNFUFy9w/vnOLJ8BChAA/QX4h3/8UVq0bCOfmycV3qQDYml90X/84x/exUwjkBAC4QHQ5InjxfsHe5PGDWXo4JM3Cu9Jecdz6NihvfTu+YB428eFV4FbsnSZ6UWxvy1Cn9ppD4v65idS0vEbuvc42QlDeFneAEjf7CycN1euuebqSEVJH1M9bvHzS+06vZG+984GOde0cdKUmQDo5ZWvmIGTH7Dl6M//ogVzI/YEqdUvOpo6484Ayzo4rJ4PCQEEEEgGgYMHv5eyFW6yp6o1ZmpUrybLXnjRPXV9c16kyBWyw7QJdR6+OSvr16srIx4bGvLWfLRpbzlx0hSbpVSpErJo/nNO9jQ/tWbDosVL7Po777hNnhqf0uZHq8VdWexadzsdAiKt+5KTSd/uV6xc1ZmVlS+9YI/fXcBEYAIEQFlMrz+QLVu3c7tvdIrXP+KmPz3ZDuLlLOMTgUQSiBQA7d6zR267o7pt06LVyt7esC5Vb4j6QKBCpSpy9Ojvoj8H+oZGR+uOFgB5G47eektVmTJpQlQqb9f0TZs0kiGDBrr5vQFQi+ZN5dFHHnLXhU9oRw3XlirjthEaM2qE1Kldy2bLTADU9f4H3NHMq1e/U8Y/OSZ81+78G2vWyj0dO9t5bY+0ZfO7cpap/kdCAAEE/u4C2r20tp0OT9dcXVyGmXGAippeP52qzJ+aDgs0WPns8+1uducBm7Ng0JBh8uysOXZWq9Jplbr0krftacWKZqy7Z1LGutO/70qVPtlBzorly9LthTQ8aFq84DnRNrCk4AUIgLLwGmi1nVZt2pmuck/W43eKH/jwAGnZopkzyycCCScQKQDSk/B2MRrpez7tmRny2PCR9nxvrlJZpj09yU5HC4Bur1bTHZBOB4/T8Riipf4DHpEFCxfZLGXL3mDbzjj5vQFQLFUWtKraV1/9x27etUtnuf++LnY6MwGQDsKnXW5rqlWzuuhNOq2kTwydAEjzrH4t9nGW0iqT5QgggEAiCOhgpfr735u0jelM8yY8V65c3sV2+vDhw9KsRRu3V099w/7OxjfdmjajxzwpEyenvEUvfX0pWTAvJRhKVZBnQf8HH5YFixbbJd6gKbx63uxnn4nYY6inKPnuu++kfKWb3UWxBE1uZib+UgECoCzi1X7o9Q9BbyNmp2it7hPtDx4nH58IxLNAWgGQt3H/FVdcbjoPOFldQXvsueX2am5AMX3qZKlSOaV6Q7QASJ+yOdUb0uu2VM1mzpotg4ekdC96WVjXpN4A6HnT7qaE6VY1Wup0733y2uurbJZmTRvL4EcfsdOZCYBKlSknP5nfERlJ85+bLWVKX5+RTdkGAQQQSCiBAwcPSrkKlUOOed2a122tgZCFnpmtWz+RuvUbuUu8Yy16H8BpM4S31r3h5ktrolWbu2XDxk12deOGDcybp0Fu1mtKlBatKaBp+LAh0rBBPXddpAntNbhRkxbuqo3r16Rq++muZMJXAQKgLODWKj76A6OvY8PTgP59pW2bVuGLmUcg4QTSCoB0UNGbbtZusb+z5+T9g117atMHA5oKFy4k2gWp00g1WgB0edHibjU0fWKnT+6iJR0rqMt93W0WHaNo01vr3OzeAGjDm2+k27W0d7DW2rVqyBOjU95eZSYA8p6Pe2AxToS3aYpxM7IhgAACCSdw5MhRKX5tyZDjDh9zLWSlmdF7UKkyN7pjzPXp3VM6tG9nsy1+folp2znATmsV7O3bPg7pJCe8LJ331gLocM/d0qdXDzdbpSq3yL59++28t4aAmyFsQns7faBnH3fpto8/lDPPzOHOMxGcAAFQJu319au2+fHWQdUi9Qdt6KBH0+0hJJO7Z3MEfBNIKwDSA/COdaBVvLSHOE3etyl6E9GbiZOiBUA3lKsoP/xwyGaNZeDgyWasoJFmzCBNWkf8ZVM320neAGjurBlS1gxcHC21ufseWb9+g83i7bUxMwFQmbIV5NChw7bMmjWqS9WbQ59whh/Pb6bXuH+YNlWatFvvvHnzhmdhHgEEEPhbCpQtf1NID7rpBUCK4B07qH27NtKvb0rHOOG9sIUPbBoOqLUWdBwgre6maajpAa6J6QnOSd4e4mIZ2PQp0wGDDnytKfzhnFMmn8EIEABlwv3QoUOiPwzhI9RrzyVjRj0u1avdkYnS2RSB+BKIFgBpzz3a0402+NTvv75p0RtIpSq32nF3tPc17X7U2/V0tACoRq26bi+K3ptZWiIP9OxtxhVKGZHb22hV83sDoIcG9JM2rU52SRqpvPKVqph62wfsKu8gfJkJgKrXrOP+ntD2TNquiYQAAgggkFrA++BMB4V+dcXy1JnClniDJh23R8fv0fT7779LietvsJ3w6Lz2XqoDeaeVwjthCG+DOX7CRHlyXEqnPFcVvVJeejGl19C0yuvarbsdw0jXe2sUpJWf5f4JEABl0Fr/GGrRuq3bsNkpRgdrnPTUONHua0kI/J0EogVAep7ens70BnT096MybvxES1C3Tm0zYvbwEI5oAVCvPv1kydIXbP70Gq5q9Yc7TKNZ7ZFOU3gvQN4ASB9KjB+b8qbIZg77T6s2aBUHJ02dMtG8raliZzMTAPXo1dftyrVq1dDxhWzh/IcAAgggYAWenT1HBg0e5mq8u2m95MuXz50PnwgPWp4cM9J0NlPDzdasZWt555337Ly+fZ86JaUjHjeDZ8I7tEOkNzbvvPue6XShtbuFjlN0temhLlLSh+TaAUJab5MibcMy/wQIgDJgrU+7m7dq4/ZS5S1iyOCBUrpU9PYKuXPnohGcF43phBBILwDy3hgKFSwofxz7wx34c/HCeVLS9OTjTdECoDVr10n7DiffkkRrS/f4qDEy5elpbtHhNyRvAKSZxj4xSrQaWnjSt1d6Y/tg84d2lXbr/cG7GyVHjpT62pkJgFatXmPH99GCtXqsdoNd7c7Ib4g/+/xzt9c87QZbb9aRRjgPP37mEUAAgb+DgPaoq2/idQBpTfrmZPTIEW77Ue856u/tzl27yWrzO1aT1kDQjga81YbD2wEtMmPBReqK+utvvjED2Nd12xJ1Mm+RepqHed50/Phx27HP3r1f28XaqY927hMpPTp4qMyaPdeu0t7p3ly7SvKYQb1J8SFAAJSB61CnXsOIvb3FWlSF8uVk1szpsWYnHwJxIZBeAKQHqeM36NM4bypW7CpZvux57yI7HS0A0idmWm1s1+49Nm/27NnN+A3jbNsZpxMFvRHpAHm9+z7olh1poLvwAEgDG71h3VCmtDtgnvbqM/zxUTL3ufluWS3NmEEDPWMGZSYA0moY1cz57NnzlS1fqwROnjjBvinOli2bu0/tMUgbzH799Td2mbfbcDcTEwgggMDfXOCxESNl2vQZ7lk2alhfdBgD7+9LvQd0695DVr7ympsvUrsczacdGzi/V/UB3ZzZM+Tiiy5yt9P23O3ad5SPTY9ymqIFLDpIqo4/5CTtDKFb13tDjs07mLfm0yp5WjOCFD8CBEAZuBbeuqYZ2FwIgDKixjZBC8QSAM2aM1ceHTQ05FDTGnsnWgCkBXz44RZp2LS52xucLjvXPD3TKnEn/jwh75qqCL/88qsutilHjjNsfex/XXqps8h+egOg/Oed5zauzZ8/v1xvRgb/6aef5f0PNrvVFHSjfPnyyqpXV4q+rXVSZgIgLUMb4zZt3tIOGuuUmTdvHilVsqScc05u2blrt2zZ8pGzyvQUdKYsND3gFS9ezF3GBAIIIJAMAkePHpW69Rq54/voOZ93Xj6pWKG8FDVtb7Zu3SYbN22Sw4d/dDluvLGMHXBeH3KFJx2uodO9Xd3fv5qnuRnmoHDhwvL9Dz/IvPkL3I53dNv+phOFu01nCpGSvnVq1KS5fPTxVne1DlWgbYs0QHv73XfdN1KaoXChgrJs6WLe/rha8TFBAJSB60AAlAE0Nkl4gVgCoF9++UXKVazijpOgAcRG0yX1WeaP+fCUXgCk+XWf3Xv0dssLL8OZ18BIR/i+8YYyziL30xsALZo/V9p37Bx1TB69yc6YPlWKXVXULUMnMhsAaRmvvPqaaHugI0eO6GyaSW/O00z7o/R6rEuzAFYggAACCS6gv3P79HtQ1q57M90zKV+urK0uHK2Lae94cdEKbN2qhTw8oH+0LCbwOiwNGzd3256mlTlPnnNl0YLn5NJLLkkrC8sDEiAAygB8hZtudsc8ycDmttqLju1BQiCRBLztcqrdebtMGPdkxMMf8PBA8zRtoV3XpnVLeejBfhHz3dOxk7yxZp1dF21Ebe3cQKtCaC9vTp1wp8BcuXJKvbvqSvt2baVgwQudxSGfRa66xowTcdw8mTNvYd7eYNomHZNRpsvspctetD3UOZm1WtpddetKl87/jliW3vC0O2vTS6odR2LHZyef/mkZ3u5OW7ZoJgMfPllFwtmHfn755U6ZOv0ZeenlFSYQOupdJTlzni068F6He9rbp50hK5lBAAEEklBgztx5topy+O9/pdCHRXXr1LL3Gae9ZjQifag2wlR3dqpXe/NqpwcP3N9NGtS/K6Q6mzePd1o7OdAe4eYvWGTvMd51Ol2jejXp1bO7XGTeMpHiT4AAKP6uCUeEAAIRBLQdjfbSptUVTpw4YQY0LSAFL7xQtKOAjCQtb7dpY/TjTz/ZqgkXXXxRxDdVGSk7lm20ise+/ftttQsNzi6+6GLJn/+8WDYlDwIIIJBUAvoQ64svv5Rt2z6Vb80wBWebTgUKmapl5cy4bjlz5jwlCy1rs6livXPXLjM+2yHJnSu3XHbZpVKiRIkM3QP0vvTJtm0pbTzNL3M9Lq1BwFufU7osvmcmAPKdnB0igAACCCCAAAIIIIBAUAIEQEHJs18EEEAAAQQQQAABBBDwXYAAyHdydogAAggggAACCCCAAAJBCRAABSXPfhFAAAEEEEAAAQQQQMB3AQIg38nZIQIIIIAAAggggAACCAQlQAAUlDz7RQABBBBAAAEEEEAAAd8FCIB8J2eHCCCAAAIIIIAAAgggEJQAAVBQ8uwXAQQQQAABBBBAAAEEfBcgAPKdnB0igAACCCCAAAIIIIBAUAIEQEHJs18EEEAAAQQQQAABBBDwXYAAyHdydogAAggggAACCCCAAAJBCRAABSXPfhFAAAEEEEAAAQQQQMB3AQIg38nZIQIIIIAAAggggAACCAQlQAAUlDz7RQABBBBAAAEEEEAAAd8FCIB8J2eHCCCAAAIIIIAAAgggEJQAAVBQ8uwXAQQQQAABBBBAAAEEfBcgAPKdnB0igAACCCCAAAIIIIBAUAIEQEHJs18EEEAAAQQQQAABBBDwXYAAyHdydogAAggggAACCCCAAAJBCRAABSXPfhFAAAEEEEAAAQQQQMB3AQIg38nZIQIIIIAAAggggAACCAQlQAAUlDz7RQABBBBAAAEEEEAAAd8FCIB8J2eHCCCAAAIIIIAAAgggEJQAAVBQ8uwXAQQQQAABBBBAAAEEfBcgAPKdnB0igAACCCCAAAIIIIBAUAIEQEHJs18EEEAAAQQQQAABBBDwXYAAyHdydogAAggggAACCCCAAAJBCRAABSXPfhFAAAEEEEAAAQQQQMB3AQIg38nZIQIIIIAAAggggAACCAQlQAAUlDz7RQABBBBAAAEEEEAAAd8FCIB8J2eHCCCAAAIIIIAAAgggEJQAAVBQ8uwXAQQQQAABBBBAAAEEfBcgAPKdnB0igAACCCCAAAIIIIBAUAIEQEHJs18EEEAAAQQQQAABBBDwXYAAyHdydogAAggggAACCCCAAAJBCRAABSXPfhFAAAEEEEAAAQQQQMB3AQIg38nZIQIIIIAAAggggAACCAQlQAAUlDz7RQABBBBAAAEEEEAAAd8FCIB8J2eHCCCAAAIIIIAAAgggEJQAAVBQ8uwXAQQQQAABBBBAAAEEfBcgAPKdnB0igAACCCCAAAIIIIBAUAIEQEHJs18EEEAAAQQQQAABBBDwXYAAyHdydogAAggggAACCCCAAAJBCRAABSXPfhFAAAEEEEAAAQQQQMB3AQIg38nZIQIIIIAAAggggAACCAQlQAAUlDz7RQABBBBAAAEEEEAAAd8FCIB8J2eHCCCAAAIIIIAAAgggEJQAAVBQ8uwXAQQQQAABBBBAAAEEfBcgAPKdnB0igAACCCCAAAIIIIBAUAIEQEHJs18EEEAAAQQQQAABBBDwXYAAyHdydogAAggggAACCCCAAAJBCRAABSXPfhFAAAEEEEAAAQQQQMB3AQIg38nZIQIIIIAAAggggAACCAQlQAAUlDz7RQABBBBAAAEEEEAAAd8FkioA2rN3v+/A7BABBBBAAAEEEEAAAQTiR4AAKH6uBUeCAAIIIIAAAggggAACf7FAUgVAf7ElxSOAAAIIIIAAAggggECcCxAAxfkF4vAQQAABBBBAAAEEEEAg6wQIgLLOkpIQQAABBBBAAAEEEEAgzgUIgOL8AnF4CCCAAAIIIIAAAgggkHUCBEBZZ0lJCCCAAAIIIIAAAgggEOcCBEBxfoE4PAQQQAABBBBAAAEEEMg6AQKgrLOkJAQQQAABBBBAAAEEEIhzAQKgOL9AHB4CCCCAAAIIIIAAAghknQABUNZZUhICCCCAAAIIIIAAAgjEuQABUJxfIA4PAQQQQAABBBBAAAEEsk6AACjrLCkJAQQQQAABBBBAAAEE4lyAACjOLxCHhwACCCCAAAIIIIAAAlknQACUdZaUhAACCCCAAAIIIIAAAnEuQAAU5xeIw0MAAQQQQAABBBBAAIGsEyAAyjpLSkIAAQQQQAABBBBAAIE4FyAAivMLxOEhgAACCCCAAAIIIIBA1gn8P9CxMrPvEDbVAAAAAElFTkSuQmCC;strokeWidth=5;dashed=1;labelBorderColor=default;spacingLeft=1;spacingBottom=1;fillOpacity=100;" vertex="1" parent="1">
          <mxGeometry x="582" y="963.33" width="226.09" height="89.67" as="geometry" />
        </mxCell>
        <mxCell id="TO2rfZ25YX1bt6g4n42r-51" value="&lt;div&gt;&amp;nbsp;&amp;lt;tr *ngFor=&quot;let item of allProducts&quot;&amp;gt;&lt;/div&gt;&lt;div&gt;&amp;nbsp; &amp;nbsp; &amp;nbsp; &amp;nbsp; &amp;nbsp; &amp;lt;th scope=&quot;row&quot;&amp;gt;{{ item.id }}&amp;lt;/th&amp;gt;&lt;/div&gt;&lt;div&gt;&amp;nbsp; &amp;nbsp; &amp;nbsp; &amp;nbsp; &amp;nbsp; &amp;lt;td&amp;gt;{{ item.pname }}&amp;lt;/td&amp;gt;&lt;/div&gt;&lt;div&gt;&amp;nbsp; &amp;nbsp; &amp;nbsp; &amp;nbsp; &amp;nbsp; &amp;lt;td&amp;gt;{{ item.price }}&amp;lt;/td&amp;gt;&lt;/div&gt;&lt;div&gt;&amp;nbsp;&amp;lt;tr&amp;gt;&lt;/div&gt;&lt;div&gt;&lt;br&gt;&lt;/div&gt;" style="text;html=1;align=left;verticalAlign=middle;resizable=0;points=[];autosize=1;strokeColor=#d6b656;fillColor=#fff2cc;fontSize=10;" vertex="1" parent="1">
          <mxGeometry x="393" y="969" width="195" height="84" as="geometry" />
        </mxCell>
        <mxCell id="TO2rfZ25YX1bt6g4n42r-53" value="&lt;font style=&quot;font-size: 13px;&quot;&gt;Product-list.component .html&lt;/font&gt;" style="text;html=1;align=center;verticalAlign=middle;resizable=0;points=[];autosize=1;strokeColor=none;fillColor=none;fontSize=8;fontColor=none;" vertex="1" parent="1">
          <mxGeometry x="391" y="919" width="183" height="28" as="geometry" />
        </mxCell>
        <mxCell id="TO2rfZ25YX1bt6g4n42r-56" value="" style="edgeStyle=elbowEdgeStyle;elbow=vertical;endArrow=classic;html=1;curved=0;rounded=0;endSize=8;startSize=8;fontSize=10;fontColor=#000000;" edge="1" parent="1" source="TO2rfZ25YX1bt6g4n42r-42">
          <mxGeometry width="50" height="50" relative="1" as="geometry">
            <mxPoint x="239.1199999999999" y="839.02" as="sourcePoint" />
            <mxPoint x="398" y="971" as="targetPoint" />
            <Array as="points">
              <mxPoint x="375" y="883" />
            </Array>
          </mxGeometry>
        </mxCell>
      </root>
    </mxGraphModel>
  </diagram>
  <diagram id="A5sc-51XP2Ev_N9xDFqg" name="Page-2">
    <mxGraphModel dx="1194" dy="591" grid="0" gridSize="10" guides="1" tooltips="1" connect="1" arrows="1" fold="1" page="1" pageScale="1" pageWidth="850" pageHeight="1100" math="0" shadow="0">
      <root>
        <mxCell id="0" />
        <mxCell id="1" parent="0" />
        <mxCell id="Z39-AIf6DCWjO61vzIxc-1" value="&lt;b&gt;&lt;font style=&quot;font-size: 15px;&quot;&gt;Update the Product details&lt;/font&gt;&lt;/b&gt;" style="text;html=1;align=center;verticalAlign=middle;resizable=0;points=[];autosize=1;strokeColor=none;fillColor=none;fontSize=13;fontColor=#d20f0f;" vertex="1" parent="1">
          <mxGeometry x="28" y="62" width="208" height="30" as="geometry" />
        </mxCell>
        <mxCell id="Z39-AIf6DCWjO61vzIxc-2" value="&lt;div style=&quot;&quot;&gt;&lt;div style=&quot;&quot;&gt;&lt;span style=&quot;font-size: 10px;&quot;&gt;&lt;b&gt;const routes: Routes = [&lt;/b&gt;&lt;/span&gt;&lt;/div&gt;&lt;div style=&quot;&quot;&gt;&lt;span style=&quot;font-size: 10px;&quot;&gt;&amp;nbsp; &amp;nbsp; &amp;nbsp; &amp;nbsp; { path : &#39;products/home&#39;,&lt;/span&gt;&lt;/div&gt;&lt;div style=&quot;&quot;&gt;&lt;span style=&quot;font-size: 10px;&quot;&gt;&amp;nbsp; &amp;nbsp; &amp;nbsp; &amp;nbsp; &amp;nbsp; component : ProductListComponent&amp;nbsp;&lt;/span&gt;&lt;/div&gt;&lt;div style=&quot;&quot;&gt;&lt;span style=&quot;font-size: 10px;&quot;&gt;&amp;nbsp; &amp;nbsp; &amp;nbsp; &amp;nbsp; },&lt;/span&gt;&lt;/div&gt;&lt;div style=&quot;&quot;&gt;&lt;span style=&quot;font-size: 10px;&quot;&gt;&amp;nbsp; &amp;nbsp; &amp;nbsp; &amp;nbsp; {&lt;/span&gt;&lt;/div&gt;&lt;div style=&quot;&quot;&gt;&lt;span style=&quot;font-size: 10px;&quot;&gt;&amp;nbsp; &amp;nbsp; &amp;nbsp; &amp;nbsp; &amp;nbsp; path:&#39;products/edit/:id&#39;,&lt;/span&gt;&lt;/div&gt;&lt;div style=&quot;&quot;&gt;&lt;span style=&quot;font-size: 10px;&quot;&gt;&amp;nbsp; &amp;nbsp; &amp;nbsp; &amp;nbsp; &amp;nbsp; component: ProductEditComponent&amp;nbsp;&lt;/span&gt;&lt;/div&gt;&lt;div style=&quot;&quot;&gt;&lt;span style=&quot;font-size: 10px;&quot;&gt;&amp;nbsp; &amp;nbsp; &amp;nbsp; &amp;nbsp; }&amp;nbsp; &amp;nbsp;&lt;/span&gt;&lt;/div&gt;&lt;div style=&quot;&quot;&gt;&lt;span style=&quot;font-size: 10px;&quot;&gt;];&lt;/span&gt;&lt;/div&gt;&lt;/div&gt;" style="text;html=1;align=left;verticalAlign=middle;resizable=0;points=[];autosize=1;strokeColor=#6c8ebf;fillColor=#dae8fc;fontSize=8;strokeWidth=4;" vertex="1" parent="1">
          <mxGeometry x="601" y="115.5" width="208" height="120" as="geometry" />
        </mxCell>
        <mxCell id="Z39-AIf6DCWjO61vzIxc-4" value="&lt;div style=&quot;font-size: 10px;&quot;&gt;&lt;div style=&quot;border-color: var(--border-color);&quot;&gt;&lt;div style=&quot;border-color: var(--border-color);&quot;&gt;&lt;b&gt;const routes: Routes&lt;/b&gt; = [&lt;/div&gt;&lt;div style=&quot;border-color: var(--border-color);&quot;&gt;&amp;nbsp;{&amp;nbsp;&lt;/div&gt;&lt;div style=&quot;border-color: var(--border-color);&quot;&gt;&amp;nbsp; path : &#39;&#39;,&lt;/div&gt;&lt;div style=&quot;border-color: var(--border-color);&quot;&gt;&amp;nbsp; redirectTo: &#39;products/home&#39;,&lt;/div&gt;&lt;div style=&quot;border-color: var(--border-color);&quot;&gt;&amp;nbsp; pathMatch : &#39;full&#39; }&lt;/div&gt;&lt;div style=&quot;border-color: var(--border-color);&quot;&gt;];&lt;/div&gt;&lt;/div&gt;&lt;/div&gt;" style="text;html=1;align=left;verticalAlign=middle;resizable=0;points=[];autosize=1;strokeColor=#6c8ebf;fillColor=#dae8fc;fontSize=8;strokeWidth=4;" vertex="1" parent="1">
          <mxGeometry x="693" y="264.5" width="146" height="84" as="geometry" />
        </mxCell>
        <mxCell id="Z39-AIf6DCWjO61vzIxc-5" value="product.json" style="shape=note;whiteSpace=wrap;html=1;backgroundOutline=1;darkOpacity=0.05;" vertex="1" parent="1">
          <mxGeometry x="420" y="49" width="83" height="35.5" as="geometry" />
        </mxCell>
        <mxCell id="Z39-AIf6DCWjO61vzIxc-6" value="&lt;span style=&quot;background-color: rgb(204, 255, 255);&quot;&gt;{&quot;products&quot;: [&lt;br&gt;&amp;nbsp; &amp;nbsp; {&lt;br&gt;&amp;nbsp; &amp;nbsp; &amp;nbsp; &quot;id&quot;: 1,&lt;br&gt;&amp;nbsp; &amp;nbsp; &amp;nbsp; &quot;pname&quot;: &quot;Laptop&quot;,&lt;br&gt;&amp;nbsp; &amp;nbsp; &amp;nbsp; &quot;price&quot;: &quot;5000&quot;&lt;br&gt;&amp;nbsp; &amp;nbsp; },&lt;br&gt;&amp;nbsp; &amp;nbsp; {&lt;br&gt;&amp;nbsp; &amp;nbsp; &amp;nbsp; &quot;id&quot;: 2,&lt;br&gt;&amp;nbsp; &amp;nbsp; &amp;nbsp; &quot;pname&quot;: &quot;Mobile&quot;,&lt;br&gt;&amp;nbsp; &amp;nbsp; &amp;nbsp; &quot;price&quot;: &quot;600&quot;&lt;br&gt;&amp;nbsp; &amp;nbsp; }]}&lt;/span&gt;" style="text;html=1;align=left;verticalAlign=middle;resizable=0;points=[];autosize=1;strokeColor=#6c8ebf;fillColor=#dae8fc;fontSize=8;labelBackgroundColor=#3333FF;" vertex="1" parent="1">
          <mxGeometry x="470" y="80" width="98" height="118" as="geometry" />
        </mxCell>
        <mxCell id="Z39-AIf6DCWjO61vzIxc-8" value="&lt;font style=&quot;font-size: 13px;&quot;&gt;app-routing.module.ts&lt;/font&gt;" style="text;html=1;align=center;verticalAlign=middle;resizable=0;points=[];autosize=1;strokeColor=none;fillColor=none;fontSize=8;fontColor=none;" vertex="1" parent="1">
          <mxGeometry x="678" y="235.5" width="144" height="28" as="geometry" />
        </mxCell>
        <mxCell id="Z39-AIf6DCWjO61vzIxc-9" value="&lt;div&gt;&amp;nbsp;&amp;lt;tr *ngFor=&quot;let item of allProducts&quot;&amp;gt;&lt;/div&gt;&lt;div&gt;&amp;nbsp; &amp;nbsp; &amp;nbsp; &amp;nbsp; &amp;nbsp; &amp;lt;th scope=&quot;row&quot;&amp;gt;{{ item.id }}&amp;lt;/th&amp;gt;&lt;/div&gt;&lt;div&gt;&amp;nbsp; &amp;nbsp; &amp;nbsp; &amp;nbsp; &amp;nbsp; &amp;lt;td&amp;gt;{{ item.pname }}&amp;lt;/td&amp;gt;&lt;/div&gt;&lt;div&gt;&amp;nbsp; &amp;nbsp; &amp;nbsp; &amp;nbsp; &amp;nbsp; &amp;lt;td&amp;gt;{{ item.price }}&amp;lt;/td&amp;gt;&lt;/div&gt;&lt;div&gt;&amp;nbsp;&amp;lt;tr&amp;gt;&lt;/div&gt;&lt;div&gt;&lt;br&gt;&lt;/div&gt;" style="text;html=1;align=left;verticalAlign=middle;resizable=0;points=[];autosize=1;strokeColor=#d6b656;fillColor=#fff2cc;fontSize=10;" vertex="1" parent="1">
          <mxGeometry x="393.5" y="1039.25" width="195" height="84" as="geometry" />
        </mxCell>
        <mxCell id="Z39-AIf6DCWjO61vzIxc-31" value="&lt;span style=&quot;caret-color: rgb(0, 0, 0); font-family: Lora, serif; text-align: start; text-size-adjust: auto; background-color: rgb(211, 211, 211);&quot;&gt;&lt;font style=&quot;font-size: 16px;&quot;&gt;ng generate module product --routing&lt;/font&gt;&lt;/span&gt;" style="text;html=1;align=center;verticalAlign=middle;resizable=0;points=[];autosize=1;strokeColor=none;fillColor=none;fontSize=10;fontColor=#000000;" vertex="1" parent="1">
          <mxGeometry x="28" y="82" width="258" height="31" as="geometry" />
        </mxCell>
        <mxCell id="Z39-AIf6DCWjO61vzIxc-32" value="&lt;span style=&quot;caret-color: rgb(0, 0, 0); font-family: Lora, serif; text-align: start; text-size-adjust: auto; background-color: rgb(255, 255, 255);&quot;&gt;&lt;font style=&quot;font-size: 17px;&quot;&gt;ng generate component components/product-edit&lt;/font&gt;&lt;/span&gt;" style="text;html=1;align=center;verticalAlign=middle;resizable=0;points=[];autosize=1;strokeColor=none;fillColor=none;fontSize=16;fontColor=#000000;" vertex="1" parent="1">
          <mxGeometry x="26" y="102" width="351" height="32" as="geometry" />
        </mxCell>
        <mxCell id="Z39-AIf6DCWjO61vzIxc-33" value="&lt;font style=&quot;font-size: 13px;&quot;&gt;Product-routing.module .ts&lt;/font&gt;" style="text;html=1;align=center;verticalAlign=middle;resizable=0;points=[];autosize=1;strokeColor=none;fillColor=none;fontSize=8;fontColor=none;" vertex="1" parent="1">
          <mxGeometry x="642" y="84.5" width="170" height="28" as="geometry" />
        </mxCell>
        <mxCell id="wB9gB8lP3R_2sDPi3FtU-1" value="&lt;span style=&quot;caret-color: rgb(0, 0, 0); font-family: Lora, serif; text-align: start; text-size-adjust: auto; background-color: rgb(211, 211, 211);&quot;&gt;&lt;font style=&quot;font-size: 15px;&quot;&gt;ng generate interface products/product&lt;/font&gt;&lt;/span&gt;" style="text;html=1;align=center;verticalAlign=middle;resizable=0;points=[];autosize=1;strokeColor=none;fillColor=none;fontSize=15;fontColor=#000000;" vertex="1" parent="1">
          <mxGeometry x="26" y="124" width="249" height="30" as="geometry" />
        </mxCell>
        <mxCell id="wB9gB8lP3R_2sDPi3FtU-3" value="&lt;font style=&quot;font-size: 13px;&quot;&gt;product.ts&lt;/font&gt;" style="text;html=1;align=center;verticalAlign=middle;resizable=0;points=[];autosize=1;strokeColor=none;fillColor=none;fontSize=8;fontColor=none;" vertex="1" parent="1">
          <mxGeometry x="60" y="176" width="75" height="28" as="geometry" />
        </mxCell>
        <mxCell id="wB9gB8lP3R_2sDPi3FtU-4" value="&lt;div style=&quot;font-size: 10px;&quot;&gt;&lt;div style=&quot;border-color: var(--border-color);&quot;&gt;&lt;div style=&quot;border-color: var(--border-color);&quot;&gt;&lt;div style=&quot;border-color: var(--border-color);&quot;&gt;&lt;b&gt;export interface Product&lt;/b&gt; {&lt;/div&gt;&lt;div style=&quot;border-color: var(--border-color);&quot;&gt;&amp;nbsp; &amp;nbsp; id: number,&lt;/div&gt;&lt;div style=&quot;border-color: var(--border-color);&quot;&gt;&amp;nbsp; &amp;nbsp; pname: string,&amp;nbsp;&lt;/div&gt;&lt;div style=&quot;border-color: var(--border-color);&quot;&gt;&amp;nbsp; &amp;nbsp; price: number&lt;/div&gt;&lt;div style=&quot;border-color: var(--border-color);&quot;&gt;}&lt;/div&gt;&lt;div&gt;&lt;br&gt;&lt;/div&gt;&lt;/div&gt;&lt;/div&gt;&lt;/div&gt;" style="text;html=1;align=left;verticalAlign=middle;resizable=0;points=[];autosize=1;strokeColor=#b85450;fillColor=#f8cecc;fontSize=8;strokeWidth=4;" vertex="1" parent="1">
          <mxGeometry x="42" y="204" width="140" height="84" as="geometry" />
        </mxCell>
        <mxCell id="wB9gB8lP3R_2sDPi3FtU-6" value="&lt;div style=&quot;font-size: 10px;&quot;&gt;&lt;div&gt;&amp;nbsp;&lt;b&gt;getById(id: number&lt;/b&gt;) {&lt;/div&gt;&lt;div&gt;&amp;nbsp; &amp;nbsp; return this.http.get&amp;lt;Product&amp;gt;(`http://localhost:3000/products/${id}`);&lt;/div&gt;&lt;div&gt;&amp;nbsp; &amp;nbsp;}&lt;/div&gt;&lt;div&gt;&amp;nbsp; &amp;nbsp;&amp;nbsp;&lt;/div&gt;&lt;div&gt;&amp;nbsp;&lt;b&gt; &amp;nbsp;update(payload:Product)&lt;/b&gt;{&lt;/div&gt;&lt;div&gt;&amp;nbsp; &amp;nbsp; return this.http.put(`http://localhost:3000/products/${payload.id}`,payload);&lt;/div&gt;&lt;div&gt;&amp;nbsp; &amp;nbsp;}&lt;/div&gt;&lt;/div&gt;" style="text;html=1;align=left;verticalAlign=middle;resizable=0;points=[];autosize=1;strokeColor=#0e8088;fillColor=#b0e3e6;fontSize=8;strokeWidth=4;" vertex="1" parent="1">
          <mxGeometry x="203" y="201.5" width="355" height="96" as="geometry" />
        </mxCell>
        <mxCell id="wB9gB8lP3R_2sDPi3FtU-9" value="&lt;font style=&quot;font-size: 13px;&quot;&gt;Product-edit.component.ts&lt;/font&gt;" style="text;html=1;align=center;verticalAlign=middle;resizable=0;points=[];autosize=1;strokeColor=none;fillColor=none;fontSize=8;fontColor=none;" vertex="1" parent="1">
          <mxGeometry x="123" y="523" width="170" height="28" as="geometry" />
        </mxCell>
        <mxCell id="wB9gB8lP3R_2sDPi3FtU-13" value="" style="dashed=0;outlineConnect=0;html=1;align=center;labelPosition=center;verticalLabelPosition=bottom;verticalAlign=top;shape=mxgraph.weblogos.html5;labelBackgroundColor=#FFFFFF;labelBorderColor=default;strokeWidth=5;fontSize=9;fontColor=#000000;" vertex="1" parent="1">
          <mxGeometry x="336.00000000000006" y="461" width="31.4" height="36.5" as="geometry" />
        </mxCell>
        <mxCell id="wB9gB8lP3R_2sDPi3FtU-15" value="" style="shape=image;html=1;verticalAlign=top;verticalLabelPosition=bottom;labelBackgroundColor=#ffffff;imageAspect=0;aspect=fixed;image=https://cdn2.iconfinder.com/data/icons/boxicons-solid-vol-2/24/bxs-file-js-128.png;dashed=1;labelBorderColor=default;strokeWidth=5;fontSize=9;fontColor=#000000;" vertex="1" parent="1">
          <mxGeometry x="45" y="513" width="48" height="48" as="geometry" />
        </mxCell>
        <mxCell id="wB9gB8lP3R_2sDPi3FtU-16" value="" style="endArrow=none;dashed=1;html=1;dashPattern=1 3;strokeWidth=2;rounded=0;fontSize=9;fontColor=#000000;endSize=14;startArrow=none;" edge="1" parent="1" source="wB9gB8lP3R_2sDPi3FtU-7">
          <mxGeometry width="50" height="50" relative="1" as="geometry">
            <mxPoint x="155" y="215" as="sourcePoint" />
            <mxPoint x="467" y="113" as="targetPoint" />
          </mxGeometry>
        </mxCell>
        <mxCell id="wB9gB8lP3R_2sDPi3FtU-17" value="&lt;font style=&quot;font-size: 18px;&quot;&gt;http:localhost:3000/products/1&lt;/font&gt;" style="text;html=1;align=center;verticalAlign=middle;resizable=0;points=[];autosize=1;strokeColor=none;fillColor=none;fontSize=9;fontColor=#000000;" vertex="1" parent="1">
          <mxGeometry x="549" y="41" width="258" height="34" as="geometry" />
        </mxCell>
        <mxCell id="wB9gB8lP3R_2sDPi3FtU-18" value="" style="endArrow=classic;html=1;rounded=0;fontSize=9;fontColor=#000000;endSize=14;" edge="1" parent="1">
          <mxGeometry x="0.36" y="35" width="50" height="50" relative="1" as="geometry">
            <mxPoint x="615" y="239" as="sourcePoint" />
            <mxPoint x="301" y="372" as="targetPoint" />
            <mxPoint as="offset" />
          </mxGeometry>
        </mxCell>
        <mxCell id="wB9gB8lP3R_2sDPi3FtU-20" value="&lt;div style=&quot;font-size: 9px;&quot;&gt;&lt;div style=&quot;&quot;&gt;&lt;div&gt;&amp;nbsp;&amp;lt;form&amp;gt;&lt;/div&gt;&lt;div&gt;&amp;nbsp; &amp;nbsp; &amp;nbsp; &amp;lt;div class=&quot;mb-3&quot;&amp;gt;&lt;/div&gt;&lt;div&gt;&amp;nbsp; &amp;nbsp; &amp;nbsp; &amp;nbsp; &amp;lt;label for=&quot;txtName&quot; class=&quot;form-label&quot;&amp;gt;Name&amp;lt;/label&amp;gt;&lt;/div&gt;&lt;div&gt;&amp;nbsp; &amp;nbsp; &amp;nbsp; &amp;nbsp; &amp;lt;input type=&quot;text&quot; name=&quot;pname&quot; [(ngModel)] = &quot;productForm.pname&quot; class=&quot;form-control&quot; id=&quot;txtName&quot; /&amp;gt;&lt;/div&gt;&lt;div&gt;&amp;nbsp; &amp;nbsp; &amp;nbsp; &amp;lt;/div&amp;gt;&lt;/div&gt;&lt;div&gt;&amp;nbsp; &amp;nbsp; &amp;nbsp; &amp;lt;div class=&quot;mb-3&quot;&amp;gt;&lt;/div&gt;&lt;div&gt;&amp;nbsp; &amp;nbsp; &amp;nbsp; &amp;nbsp; &amp;lt;label for=&quot;txtPrice&quot; class=&quot;form-label&quot;&amp;gt;Price&amp;lt;/label&amp;gt;&lt;/div&gt;&lt;div&gt;&amp;nbsp; &amp;nbsp; &amp;nbsp; &amp;nbsp; &amp;lt;input type=&quot;number&quot; name=&quot;price&quot; [(ngModel)] = &quot;productForm.price&quot; class=&quot;form-control&quot; id=&quot;txtPrice&quot; /&amp;gt;&lt;/div&gt;&lt;div&gt;&amp;nbsp; &amp;nbsp; &amp;nbsp; &amp;lt;/div&amp;gt;&lt;/div&gt;&lt;div&gt;&amp;nbsp; &amp;nbsp;&amp;nbsp;&lt;/div&gt;&lt;div&gt;&amp;nbsp; &amp;nbsp; &amp;nbsp; &amp;lt;button type=&quot;button&quot; (click)=&quot;update()&quot; class=&quot;btn btn-primary&quot;&amp;gt;Update&amp;lt;/button&amp;gt;&lt;/div&gt;&lt;div&gt;&amp;nbsp; &amp;nbsp; &amp;lt;/form&amp;gt;&lt;/div&gt;&lt;/div&gt;&lt;/div&gt;" style="text;html=1;align=left;verticalAlign=middle;resizable=0;points=[];autosize=1;strokeColor=#d79b00;fillColor=#ffe6cc;fontSize=8;strokeWidth=4;" vertex="1" parent="1">
          <mxGeometry x="336" y="497.5" width="466" height="142" as="geometry" />
        </mxCell>
        <mxCell id="wB9gB8lP3R_2sDPi3FtU-21" value="&lt;font style=&quot;font-size: 13px;&quot;&gt;product-service.ts&lt;/font&gt;" style="text;html=1;align=center;verticalAlign=middle;resizable=0;points=[];autosize=1;strokeColor=none;fillColor=none;fontSize=8;fontColor=none;" vertex="1" parent="1">
          <mxGeometry x="291.20000000000005" y="176" width="121" height="28" as="geometry" />
        </mxCell>
        <mxCell id="wB9gB8lP3R_2sDPi3FtU-7" value="" style="shape=image;html=1;verticalLabelPosition=bottom;verticalAlign=top;imageAspect=0;image=img/clipart/Gear_128x128.png;labelBackgroundColor=#CCFFFF;fontSize=8;fontColor=none;" vertex="1" parent="1">
          <mxGeometry x="222" y="169.5" width="46" height="41" as="geometry" />
        </mxCell>
        <mxCell id="wB9gB8lP3R_2sDPi3FtU-22" value="" style="endArrow=none;dashed=1;html=1;dashPattern=1 3;strokeWidth=2;rounded=0;fontSize=9;fontColor=#000000;endSize=14;" edge="1" parent="1" target="wB9gB8lP3R_2sDPi3FtU-7">
          <mxGeometry width="50" height="50" relative="1" as="geometry">
            <mxPoint x="155" y="215" as="sourcePoint" />
            <mxPoint x="467" y="113" as="targetPoint" />
          </mxGeometry>
        </mxCell>
        <mxCell id="wB9gB8lP3R_2sDPi3FtU-23" value="&lt;font style=&quot;font-size: 13px;&quot;&gt;product-edit.component.html&lt;/font&gt;" style="text;html=1;align=center;verticalAlign=middle;resizable=0;points=[];autosize=1;strokeColor=none;fillColor=none;fontSize=8;fontColor=none;" vertex="1" parent="1">
          <mxGeometry x="446" y="471.5" width="183" height="28" as="geometry" />
        </mxCell>
        <mxCell id="wB9gB8lP3R_2sDPi3FtU-25" value="&lt;div style=&quot;&quot;&gt;&lt;div style=&quot;&quot;&gt;&lt;font size=&quot;1&quot;&gt;&amp;lt;a class=&quot;btn btn-primary&quot; [routerLink]=&quot;[&#39;/products/edit&#39;, item.id]&quot;&amp;gt;Edit&amp;lt;/a&amp;gt;&lt;/font&gt;&lt;br&gt;&lt;/div&gt;&lt;/div&gt;" style="text;html=1;align=left;verticalAlign=middle;resizable=0;points=[];autosize=1;strokeColor=#d79b00;fillColor=#ffe6cc;fontSize=8;strokeWidth=4;" vertex="1" parent="1">
          <mxGeometry x="496" y="397" width="348" height="24" as="geometry" />
        </mxCell>
        <mxCell id="wB9gB8lP3R_2sDPi3FtU-26" value="&lt;font style=&quot;font-size: 13px;&quot;&gt;product-list.component.html&lt;/font&gt;" style="text;html=1;align=center;verticalAlign=middle;resizable=0;points=[];autosize=1;strokeColor=none;fillColor=none;fontSize=8;fontColor=none;" vertex="1" parent="1">
          <mxGeometry x="569" y="369" width="178" height="28" as="geometry" />
        </mxCell>
        <mxCell id="wB9gB8lP3R_2sDPi3FtU-28" value="&lt;div style=&quot;font-size: 9px;&quot;&gt;&lt;div style=&quot;&quot;&gt;&lt;div&gt;export class ProductEditComponent implements OnInit {&lt;/div&gt;&lt;div&gt;&amp;nbsp; productForm: Product = {&lt;/div&gt;&lt;div&gt;&amp;nbsp; &amp;nbsp; id: 0,&lt;/div&gt;&lt;div&gt;&amp;nbsp; &amp;nbsp; pname: &#39;&#39;,&lt;/div&gt;&lt;div&gt;&amp;nbsp; &amp;nbsp; price: 0&lt;/div&gt;&lt;div&gt;&amp;nbsp; };&lt;/div&gt;&lt;div&gt;&amp;nbsp;&lt;b&gt; constructor(&lt;/b&gt;&lt;/div&gt;&lt;div&gt;&amp;nbsp; &amp;nbsp; private route: ActivatedRoute,&lt;/div&gt;&lt;div&gt;&amp;nbsp; &amp;nbsp; private router:Router,&lt;/div&gt;&lt;div&gt;&amp;nbsp; &amp;nbsp; private productService: ProductsService&lt;/div&gt;&lt;div&gt;&amp;nbsp; ) {}&lt;/div&gt;&lt;div&gt;&amp;nbsp;&lt;/div&gt;&lt;div&gt;&amp;nbsp; &lt;b&gt;ngOnInit():&lt;/b&gt; void {&lt;/div&gt;&lt;div&gt;&amp;nbsp; &amp;nbsp; this.route.paramMap.subscribe((param) =&amp;gt; {&lt;/div&gt;&lt;div&gt;&amp;nbsp; &amp;nbsp; &amp;nbsp; var id = Number(param.get(&#39;id&#39;));&lt;/div&gt;&lt;div&gt;&amp;nbsp; &amp;nbsp; &amp;nbsp; this.getById(id);&lt;/div&gt;&lt;div&gt;&amp;nbsp; &amp;nbsp; });&lt;/div&gt;&lt;div&gt;&amp;nbsp; }&lt;/div&gt;&lt;div&gt;&amp;nbsp;&lt;/div&gt;&lt;div&gt;&amp;nbsp; &lt;b&gt;getById(id: number&lt;/b&gt;) {&lt;/div&gt;&lt;div&gt;&amp;nbsp; &amp;nbsp; this.productService.getById(id).subscribe((data) =&amp;gt; {&lt;/div&gt;&lt;div&gt;&amp;nbsp; &amp;nbsp; &amp;nbsp; this.productForm = data;&lt;/div&gt;&lt;div&gt;&amp;nbsp; &amp;nbsp; });&lt;/div&gt;&lt;div&gt;&amp;nbsp; }&lt;/div&gt;&lt;div&gt;&amp;nbsp;&lt;/div&gt;&lt;div&gt;&amp;nbsp; &lt;b&gt;update() &lt;/b&gt;{&lt;/div&gt;&lt;div&gt;&amp;nbsp; &amp;nbsp; this.productService.update(this.productForm)&lt;/div&gt;&lt;div&gt;&amp;nbsp; &amp;nbsp; .subscribe({&lt;/div&gt;&lt;div&gt;&amp;nbsp; &amp;nbsp; &amp;nbsp; next:(data) =&amp;gt; {&lt;/div&gt;&lt;div&gt;&amp;nbsp; &amp;nbsp; &amp;nbsp; &amp;nbsp; this.router.navigate([&quot;/products/home&quot;]);&lt;/div&gt;&lt;div&gt;&amp;nbsp; &amp;nbsp; &amp;nbsp; },&lt;/div&gt;&lt;div&gt;&amp;nbsp; &amp;nbsp; &amp;nbsp; error:(err) =&amp;gt; {&lt;/div&gt;&lt;div&gt;&amp;nbsp; &amp;nbsp; &amp;nbsp; &amp;nbsp; console.log(err);&lt;/div&gt;&lt;div&gt;&amp;nbsp; &amp;nbsp; &amp;nbsp; }&lt;/div&gt;&lt;div&gt;&amp;nbsp; &amp;nbsp; })&lt;/div&gt;&lt;div&gt;&amp;nbsp; }&lt;/div&gt;&lt;div&gt;}&lt;/div&gt;&lt;/div&gt;&lt;/div&gt;" style="text;html=1;align=left;verticalAlign=middle;resizable=0;points=[];autosize=1;strokeColor=#9673a6;fillColor=#e1d5e7;fontSize=8;strokeWidth=4;" vertex="1" parent="1">
          <mxGeometry x="39" y="360" width="242" height="411" as="geometry" />
        </mxCell>
        <mxCell id="wB9gB8lP3R_2sDPi3FtU-29" value="&lt;font style=&quot;font-size: 13px;&quot;&gt;Product-edit.component.ts&lt;/font&gt;" style="text;html=1;align=center;verticalAlign=middle;resizable=0;points=[];autosize=1;strokeColor=none;fillColor=none;fontSize=8;fontColor=none;" vertex="1" parent="1">
          <mxGeometry x="84" y="327" width="170" height="28" as="geometry" />
        </mxCell>
        <mxCell id="wB9gB8lP3R_2sDPi3FtU-30" value="" style="shape=image;html=1;verticalAlign=top;verticalLabelPosition=bottom;labelBackgroundColor=#ffffff;imageAspect=0;aspect=fixed;image=https://cdn2.iconfinder.com/data/icons/boxicons-solid-vol-2/24/bxs-file-js-128.png;dashed=1;labelBorderColor=default;strokeWidth=5;fontSize=9;fontColor=#000000;" vertex="1" parent="1">
          <mxGeometry x="28" y="322" width="48" height="48" as="geometry" />
        </mxCell>
        <mxCell id="wB9gB8lP3R_2sDPi3FtU-31" value="" style="endArrow=classic;html=1;rounded=0;fontSize=9;fontColor=#000000;endSize=14;entryX=0.148;entryY=0.011;entryDx=0;entryDy=0;entryPerimeter=0;" edge="1" parent="1">
          <mxGeometry x="0.36" y="35" width="50" height="50" relative="1" as="geometry">
            <mxPoint x="279" y="363" as="sourcePoint" />
            <mxPoint x="404.9680000000001" y="504.0619999999999" as="targetPoint" />
            <mxPoint as="offset" />
            <Array as="points" />
          </mxGeometry>
        </mxCell>
        <mxCell id="wB9gB8lP3R_2sDPi3FtU-32" value="" style="endArrow=classic;html=1;rounded=0;fontSize=18;fontColor=#000000;endSize=14;exitX=0.209;exitY=0.985;exitDx=0;exitDy=0;exitPerimeter=0;entryX=0.125;entryY=0.021;entryDx=0;entryDy=0;entryPerimeter=0;" edge="1" parent="1" source="wB9gB8lP3R_2sDPi3FtU-17" target="Z39-AIf6DCWjO61vzIxc-2">
          <mxGeometry x="0.7254" y="80" width="50" height="50" relative="1" as="geometry">
            <mxPoint x="689.9063829787235" y="75" as="sourcePoint" />
            <mxPoint x="699.2127659574469" y="115.5" as="targetPoint" />
            <mxPoint as="offset" />
          </mxGeometry>
        </mxCell>
        <mxCell id="wB9gB8lP3R_2sDPi3FtU-35" value="" style="endArrow=classic;html=1;rounded=0;fontSize=18;fontColor=#000000;endSize=14;entryX=0.284;entryY=1.008;entryDx=0;entryDy=0;entryPerimeter=0;exitX=0.14;exitY=0.018;exitDx=0;exitDy=0;exitPerimeter=0;" edge="1" parent="1" source="wB9gB8lP3R_2sDPi3FtU-26" target="Z39-AIf6DCWjO61vzIxc-2">
          <mxGeometry width="50" height="50" relative="1" as="geometry">
            <mxPoint x="591" y="293" as="sourcePoint" />
            <mxPoint x="634" y="341" as="targetPoint" />
          </mxGeometry>
        </mxCell>
        <mxCell id="wB9gB8lP3R_2sDPi3FtU-37" value="" style="endArrow=classic;html=1;rounded=0;fontSize=18;fontColor=#000000;endSize=14;" edge="1" parent="1">
          <mxGeometry width="50" height="50" relative="1" as="geometry">
            <mxPoint x="256" y="357" as="sourcePoint" />
            <mxPoint x="306" y="302" as="targetPoint" />
          </mxGeometry>
        </mxCell>
        <mxCell id="wB9gB8lP3R_2sDPi3FtU-38" value="" style="endArrow=classic;html=1;rounded=0;fontSize=18;fontColor=#000000;endSize=14;" edge="1" parent="1">
          <mxGeometry width="50" height="50" relative="1" as="geometry">
            <mxPoint x="575" y="192" as="sourcePoint" />
            <mxPoint x="560" y="382" as="targetPoint" />
          </mxGeometry>
        </mxCell>
      </root>
    </mxGraphModel>
  </diagram>
</mxfile>
